<svg id="Layer_1" data-name="Layer 1" xmlns="http://www.w3.org/2000/svg" viewBox="0 0 20 20">
  <defs>
    <style>
      .cls-1 {
        fill: #fff;
      }
    </style>
  </defs>
  <path class="cls-1" d="M18.91,4.12a2.11,2.11,0,0,0,.59-1.64A2,2,0,0,0,18.2.69a2,2,0,0,0-2.27.41c-.81.78-1.62,1.57-2.41,2.38a.75.75,0,0,1-.81.23C9.51,2.88,6.3,2.08,3.1,1.25a1.42,1.42,0,0,0-1.51.42l-.52.54a.81.81,0,0,0,.22,1.43L8.66,7.83c.29.17.29.29.09.52q-1.81,2-3.6,4.11a.56.56,0,0,1-.61.2,14.84,14.84,0,0,1-1.63-.38,1.75,1.75,0,0,0-2.06.57c-.55.64-.45,1.23.35,1.55.6.24,1.2.48,1.81.7a.78.78,0,0,1,.54.52,1.33,1.33,0,0,0,.84.87.8.8,0,0,1,.55.56c.25.65.49,1.3.77,1.94a.78.78,0,0,0,1.07.44,1.83,1.83,0,0,0,1-2c-.15-.64-.3-1.29-.47-1.93a.47.47,0,0,1,.14-.54l4.22-3.68c.22-.19.33-.15.46.08L13.67,14c.9,1.57,1.79,3.14,2.69,4.7a.87.87,0,0,0,1.08.49,2.18,2.18,0,0,0,1.28-2.43c-.8-3.16-1.6-6.32-2.42-9.48a.69.69,0,0,1,.21-.77C17.32,5.73,18.11,4.92,18.91,4.12Zm-3.25,3q1.24,4.8,2.48,9.6a1.53,1.53,0,0,1-.82,1.88c-.3.15-.41-.07-.52-.28l-3-5.19L12.51,10.8c-.3-.53-.51-.57-1-.16L7,14.64a.6.6,0,0,0-.22.68c.18.72.34,1.45.5,2.17a1.27,1.27,0,0,1-.67,1.38c-.27.12-.35-.08-.43-.27-.28-.69-.56-1.38-.83-2.07a.67.67,0,0,0-.53-.5,1,1,0,0,1-.8-.81.72.72,0,0,0-.51-.54c-.7-.25-1.38-.53-2.07-.81-.39-.16-.4-.28-.14-.61a1.19,1.19,0,0,1,1.42-.48c.69.21,1.41.34,2.11.52a.47.47,0,0,0,.53-.17L9.45,8.37c.28-.33.23-.58-.13-.8s-.78-.44-1.17-.66c-.15-.11-.32-.17-.47-.27L1.73,3.23c-.54-.31-.55-.35-.1-.77.13-.13.27-.25.4-.39a.87.87,0,0,1,1-.25l8.27,2.11c.55.14,1.11.25,1.66.42a.65.65,0,0,0,.76-.23c.84-.86,1.69-1.72,2.56-2.55a1.55,1.55,0,0,1,2.62.6,1.5,1.5,0,0,1-.42,1.61c-.85.86-1.69,1.72-2.57,2.55A.7.7,0,0,0,15.66,7.11Z"/>
</svg>
