<?xml version="1.0" encoding="utf-8"?>
<!-- Generator: Adobe Illustrator 25.4.1, SVG Export Plug-In . SVG Version: 6.00 Build 0)  -->
<svg version="1.1" id="Layer_1" xmlns="http://www.w3.org/2000/svg" xmlns:xlink="http://www.w3.org/1999/xlink" x="0px" y="0px"
	 viewBox="0 0 50 50" style="enable-background:new 0 0 50 50;" xml:space="preserve">
<style type="text/css">
	.st0{fill:#FFFFFF;}
</style>
<g>
	<path class="st0" d="M15,49.4c-0.6-0.2-1.2-0.3-1.7-0.6c-2.1-1-3.9-2.4-5.4-4.2c-2.2-2.4-3.9-5.2-5.1-8.3C2.3,35.1,2,33.7,2,32.2
		C1.7,28.8,2,25.3,3,22c1.5-5.1,4.6-9.7,8.7-13c3.2-2.6,7.1-4.4,11.1-5.2c3-0.6,6.1-0.7,9.2-0.2L34,4c-0.1,0.5-0.3,0.9-0.4,1.3
		c-0.1,0.2-0.2,0.4-0.4,0.5c-0.8,0.6-1.8,0.8-2.8,0.6C25.3,5.8,20.1,7,15.7,9.8C10.6,12.9,7,17.8,5.5,23.6C4,29.1,4.7,35,7.4,40
		c1.9,3.5,4.6,6.6,7.8,9c0.2,0.1,0.4,0.3,0.5,0.5L15,49.4z"/>
	<path class="st0" d="M44.8,26.5c-0.7-3.4-2.3-6.6-4.8-9c-0.3-0.3-0.6-0.7-0.8-0.7s-0.5,0.5-0.8,0.7s-0.2,0.3,0,0.5
		c0.6,0.5,1.1,1,1.5,1.5c-0.8,0.5-1.7,1-2.6,1.4c-0.8,0.3-0.8,0.3-1.1-0.5l-0.1-0.4c-0.8-2-1.9-3.8-3.2-5.4c0.2,0.1,0.4,0.1,0.6,0.2
		s0.7,0.5,0.9,0.3s0.4-0.6,0.6-0.9s0.1-0.4-0.2-0.5c-3.5-1.6-7.5-2-11.2-1.1C14.8,14.9,9,23.2,10.1,32.1c0.4,3.4,1.8,6.6,4,9.1
		c4,5,10.4,7.3,16.7,6c4.7-0.8,8.8-3.5,11.3-7.4C44.8,36,45.8,31.1,44.8,26.5z M26.8,29.5c0,0.3-0.1,0.4-0.4,0.4c-1.2,0-2.5,0-3.8,0
		s-2.5,0-3.7,0c-0.3,0-0.4,0-0.4-0.4c0.1-2,0.3-4,0.8-6c0.1-0.3,0.1-0.4,0.5-0.3c2.2,0.6,4.4,1,6.6,1c0.3,0,0.3,0.1,0.3,0.4
		C26.8,26.2,26.8,27.8,26.8,29.5L26.8,29.5z M23.5,15.6c0.8-0.8,1.8-1.3,2.9-1.6c0.3-0.1,0.4,0,0.4,0.3c0,1.4,0,2.7,0,4.1v3.7
		c0,0.7,0,0.7-0.6,0.6c-2-0.1-3.9-0.4-5.9-0.9c-0.3-0.1-0.4-0.2-0.3-0.5C20.7,19.1,21.9,17.2,23.5,15.6L23.5,15.6z M15.4,19.4
		c1.8-2.1,4.1-3.7,6.8-4.6c-0.7,0.8-1.3,1.6-1.8,2.4c-0.7,1.1-1.2,2.3-1.6,3.5c-0.1,0.4-0.3,0.4-0.6,0.3c-0.9-0.4-1.8-0.8-2.6-1.3
		C15.3,19.6,15.2,19.6,15.4,19.4L15.4,19.4z M14.2,21c0.1-0.2,0.2-0.2,0.4-0.1c1,0.7,2.1,1.2,3.3,1.6c0.2,0.1,0.2,0.2,0.2,0.4
		c-0.4,1.6-0.7,3.2-0.8,4.8c-0.1,0.5-0.1,1-0.1,1.6c0,0.4-0.1,0.6-0.5,0.5c-0.8,0-1.6,0-2.4,0s-1.7,0-2.5,0c-0.2,0-0.3,0-0.3-0.3
		C11.5,26.5,12.5,23.5,14.2,21L14.2,21z M14.7,39.1c-0.2,0.2-0.4,0.2-0.5-0.1c-1.5-2.2-2.4-4.8-2.7-7.4c0-0.3,0.1-0.3,0.3-0.3h5.1
		c0.3,0,0.3,0.1,0.4,0.3c0.1,1.8,0.4,3.6,0.8,5.4c0.1,0.3,0,0.4-0.3,0.5C16.7,37.9,15.6,38.4,14.7,39.1L14.7,39.1z M15.2,40.4
		c0.9-0.6,2-1.1,3-1.5c0.3-0.1,0.4-0.1,0.5,0.2c0.6,1.7,1.4,3.3,2.4,4.7c0.4,0.5,0.8,0.9,1.1,1.4C19.5,44.3,17.1,42.6,15.2,40.4
		L15.2,40.4z M26.4,46c-1.5-0.4-2.8-1.3-3.8-2.5c-1.2-1.5-2.1-3.1-2.7-4.9c-0.1-0.3,0-0.3,0.2-0.4c1.8-0.5,3.7-0.8,5.6-0.9H26
		c0.9,0,0.9,0,0.9,0.8v3.5c0,1.4,0,2.7,0,4.1C26.8,46,26.8,46.1,26.4,46z M26.8,35.4c0,0.3-0.1,0.3-0.3,0.4c-2.2,0-4.5,0.4-6.6,1
		c-0.3,0.1-0.5,0-0.5-0.3c-0.4-1.6-0.6-3.2-0.7-4.9c0-0.3,0-0.3,0.3-0.3h7.4c0.3,0,0.4,0,0.4,0.4C26.8,32.9,26.8,34.1,26.8,35.4
		L26.8,35.4z M28.8,14c1.4,0.4,2.6,1.2,3.5,2.4c1.3,1.6,2.3,3.4,2.9,5.3c-2.2,0.6-4.4,0.9-6.6,1c-0.2,0-0.2,0-0.2-0.2
		c0-0.1,0-0.2,0-0.2c0-2.6,0-5.3,0-8C28.3,13.9,28.4,13.9,28.8,14z M28.3,24.6c0-0.3,0-0.4,0.4-0.4c2.2-0.1,4.4-0.4,6.6-1
		c0.3-0.1,0.4,0,0.4,0.2c0.5,2,0.7,4,0.8,6.1c0,0.3-0.1,0.3-0.3,0.3c-1.2,0-2.5,0-3.7,0s-2.5,0-3.7,0c-0.3,0-0.4-0.1-0.4-0.4
		C28.3,27.8,28.3,26.2,28.3,24.6L28.3,24.6z M28.3,31.6c0-0.3,0.1-0.3,0.3-0.3H36c0.3,0,0.4,0,0.4,0.4c-0.1,1.6-0.3,3.2-0.7,4.8
		c-0.1,0.3-0.2,0.4-0.5,0.3c-2.1-0.6-4.3-0.9-6.6-1c-0.2,0-0.3-0.1-0.3-0.3C28.3,34.2,28.3,32.9,28.3,31.6L28.3,31.6z M31.5,44.4
		c-0.9,0.8-2,1.4-3.2,1.6c-0.1-0.1-0.1-0.2-0.1-0.4c0-2.7,0-5.4,0-8c0-0.3,0-0.4,0.4-0.4c2,0.1,4,0.4,6,0.9c0.3,0.1,0.5,0.2,0.3,0.5
		C34.3,40.8,33.1,42.8,31.5,44.4L31.5,44.4z M32.8,45.2c1.6-1.7,2.8-3.8,3.6-6c0.2-0.4,0.3-0.5,0.7-0.3c1,0.4,2,0.9,2.9,1.5
		C38,42.6,35.5,44.3,32.8,45.2L32.8,45.2z M43.6,31.6c-0.3,2.7-1.2,5.2-2.7,7.4c-0.2,0.2-0.3,0.2-0.5,0.1c-1-0.7-2.1-1.2-3.2-1.6
		C37,37.4,36.9,37.2,37,37c0.5-1.8,0.7-3.6,0.8-5.4c0-0.2,0.1-0.3,0.3-0.3h5.2C43.6,31.3,43.7,31.3,43.6,31.6z M43.1,29.8
		c-0.8,0-1.6,0-2.3,0s-1.7,0-2.6,0c-0.3,0-0.4-0.1-0.4-0.3c0-2.2-0.3-4.4-0.9-6.5c-0.1-0.2,0-0.4,0.2-0.5c1.1-0.4,2.2-1,3.3-1.6
		c0.2-0.1,0.3-0.1,0.4,0.1c1.7,2.5,2.6,5.3,2.8,8.3C43.7,29.8,43.6,29.9,43.1,29.8z"/>
	<path class="st0" d="M35.5,2.3c0.4,0.3,0.7,0.6,1.1,0.9c0.1,0.1,0.2,0.3,0.1,0.4c0,0.7,0,1.3,0,2c0,0.2,0.1,0.4,0.3,0.4
		c1.1,0.5,2.2,1,3.3,1.5c0.3,0.1,0.4,0.1,0.5-0.2c1.2-2.2,2.4-4.3,3.5-6.5c0.2-0.4,0.3-0.3,0.6-0.1c0.6,0.4,0.9,1.2,0.7,1.9
		c-0.5,2.1-1.1,4.2-1.9,6.3c-0.1,0.2-0.1,0.5,0.2,0.7c0,0,0.1,0,0.1,0c1.1,0.6,2.1,1.3,3.2,1.9c0.7,0.4,1.1,1.3,0.7,2
		c0,0.1-0.1,0.2-0.1,0.2c-0.3,0.6-0.9,0.8-1.5,0.6c-0.5-0.2-1.1-0.4-1.6-0.7c-1-0.5-1.9-1-2.9-1.6c-0.2-0.1-0.4-0.1-0.5,0.1
		c0,0,0,0,0,0.1c-1.3,1.6-2.5,3.2-4,4.8l-0.3,0.3c-0.5,0.5-1.3,0.5-1.8-0.1c0,0-0.1-0.1-0.1-0.1c-0.2-0.2,0-0.3,0.1-0.5
		c1.2-2.1,2.5-4.2,3.7-6.2c0.2-0.3,0.2-0.5-0.2-0.7c-0.8-0.6-1.7-1.2-2.6-1.8c-0.2-0.2-0.5-0.2-0.7,0c-0.7,0.4-1.4,0.7-2.1,1.1
		C33.3,9.1,33.1,9.1,33,9s-0.8-0.5-0.7-0.9s0.5-0.5,0.8-0.7s0.6-0.5,0.9-0.8c0.6-0.5,1-1.3,1.1-2.1C35.2,3.8,35.4,3.1,35.5,2.3z"/>
</g>
</svg>
