<?xml version="1.0" encoding="utf-8"?>
<!-- Generator: Adobe Illustrator 25.4.1, SVG Export Plug-In . SVG Version: 6.00 Build 0)  -->
<svg version="1.1" id="Layer_1" xmlns="http://www.w3.org/2000/svg" xmlns:xlink="http://www.w3.org/1999/xlink" x="0px" y="0px"
	 viewBox="0 0 50 50" style="enable-background:new 0 0 50 50;" xml:space="preserve">
<style type="text/css">
	.st0{fill:#FFFFFF;}
</style>
<g>
	<path class="st0" d="M46.3,49.6c-0.3-0.3-0.4-0.7-0.4-1.1c0.1-3.8-0.6-7.5-2-11.1c-1.4-3.8-4.1-6.9-7.7-8.9
		c-0.4-0.2-0.8-0.4-1.2-0.5s-0.3-0.1-0.3,0.2c0,0.6-0.1,1.2-0.1,1.8c0,0.8-0.5,1-1.2,0.7c-1-0.5-1.9-0.9-2.9-1.4
		c-0.6-0.3-0.7-0.8-0.2-1.2c0.3-0.2,0.6-0.2,0.9,0l2.2,1c0.1-0.9,0.1-1.8,0.2-2.7c0-0.6,0.5-0.9,1-0.7c0.2,0.1,0.3,0.2,0.3,0.3
		c0,0.4,0.3,0.5,0.7,0.6c3.1,1.3,5.8,3.5,7.7,6.3c2.1,3.3,3.4,7,3.8,10.9c0.2,1.5,0.3,3.1,0.3,4.6c0,0.4-0.1,0.8-0.4,1L46.3,49.6z"
		/>
	<path class="st0" d="M3.2,49.6c-0.3-0.2-0.5-0.6-0.4-1c0-3.6,0.5-7.1,1.7-10.5c1.1-3.3,3-6.2,5.5-8.5c1.4-1.3,3.1-2.3,4.9-3
		c0.2-0.1,0.4-0.1,0.4-0.4c0-0.3,0.3-0.6,0.6-0.5c0,0,0.1,0,0.1,0c0.4,0,0.6,0.3,0.6,0.7c0,0,0,0,0,0c0.1,0.9,0.1,1.8,0.2,2.8l2.2-1
		c0.3-0.2,0.7-0.1,1,0.2c0.2,0.3,0.2,0.7-0.1,0.9c0,0-0.1,0.1-0.1,0.1c-1.1,0.5-2.1,1-3.2,1.5c-0.5,0.2-0.9-0.1-1-0.6
		c-0.1-0.6-0.1-1.2-0.1-1.9c0-0.5-0.1-0.4-0.5-0.3c-2.9,1.2-5.4,3.4-7.1,6.1c-1.8,3-3,6.5-3.3,10c-0.2,1.5-0.3,3-0.3,4.5
		c0,0.3-0.2,0.6-0.4,0.9L3.2,49.6z"/>
	<path class="st0" d="M35.3,6.6C35,4,33.1,1.8,30.6,1.1c-1.8-0.5-3.6-0.8-5.4-0.7c-2-0.1-4.1,0.2-6,0.8c-2,0.6-3.6,2-4.2,4
		c-0.4,1.3-0.6,2.7-0.6,4.1c0,0.5,0,0.9,0,1.4s0.3,0.7,0.6,0.7c0.3,0,0.6,0.1,0.9,0.2c0.7,0.3,1.4,0.6,2.1,1c0.3,0.2,0.7,0.2,1,0.2
		c1.3-0.2,2.7-0.4,4-0.4c2.4-0.2,4.8,0,7.2,0.3c0.9,0.2,1.8,0.1,2.5-0.4c0.4-0.3,0.9-0.5,1.3-0.7c0.2-0.1,0.5-0.2,0.7-0.2
		c0.4,0,0.7-0.2,0.7-0.6c0,0,0-0.1,0-0.1C35.5,9.3,35.4,8,35.3,6.6z M31.6,11.2c-0.3,0.2-0.6,0-0.9,0c-3-0.4-6-0.5-9-0.2
		c-0.9,0.1-1.7,0.2-2.5,0.3c-0.3,0.1-0.6,0-0.9-0.1l-1.5-0.7c5.3-1.8,11-1.8,16.2,0C32.5,10.8,32,11,31.6,11.2z M15.8,9.4
		c-0.1-1.5,0.2-2.9,0.7-4.3c0.7-1.5,2-2.5,3.6-2.8c2.7-0.6,5.5-0.8,8.2-0.3c1.1,0.1,2.2,0.5,3.2,1c1.4,0.8,2.2,2.2,2.4,3.8
		c0.1,0.8,0.1,1.7,0.2,2.6C28.2,7.2,21.7,7.2,15.8,9.4z"/>
	<path class="st0" d="M24.8,28.7c-2.4-0.1-4.7-1.3-6.4-3.1c-1.5-1.7-2.5-3.8-2.8-6c0-0.3-0.2-0.5-0.4-0.6c-1.8-1.2-2.5-3.4-1.9-5.4
		c0.2-0.7,1-1.2,1.7-1c0.1,0,0.2,0.1,0.3,0.1c0.4,0.2,0.7,0.4,1,0.7c0.3,0.2,0.3,0.6,0.1,0.9c0,0-0.1,0.1-0.1,0.1
		c-0.2,0.3-0.6,0.3-0.9,0.1c0,0,0,0,0,0l0,0c-0.2-0.2-0.5-0.5-0.7-0.4s-0.2,0.6-0.2,0.9c-0.1,1.3,0.6,2.5,1.8,3
		c0.3,0.1,0.5,0.5,0.6,0.8c0.1,2,0.8,3.8,2.1,5.4c1.5,2,3.9,3.2,6.4,3.1c1.9-0.2,3.7-1.1,5-2.5c1.5-1.6,2.5-3.7,2.6-5.9
		c0-0.4,0.3-0.8,0.7-0.9c1.3-0.7,2-2.3,1.6-3.8c0-0.2-0.2-0.3-0.4-0.1l-0.5,0.4c-0.3,0.3-0.7,0.3-1,0c-0.3-0.3-0.3-0.7,0-1
		c0.4-0.5,0.9-0.8,1.5-0.9c0.7-0.2,1.4,0.3,1.6,1c0,0,0,0,0,0c0.6,2-0.1,4.2-1.8,5.3c-0.3,0.2-0.4,0.4-0.5,0.8
		c-0.4,3.7-2.8,6.9-6.2,8.4C27,28.5,25.9,28.7,24.8,28.7z"/>
	<path class="st0" d="M25,39.6c-1.8,0-3.2,1.4-3.2,3.2c0,1.8,1.4,3.2,3.2,3.2c1.8,0,3.2-1.4,3.2-3.2c0,0,0,0,0,0
		C28.2,41.1,26.8,39.6,25,39.6z M25,44.7c-1-0.1-1.8-1-1.7-2c0.1-0.9,0.8-1.6,1.7-1.7c1-0.1,1.9,0.7,2,1.7c0.1,1-0.7,1.9-1.7,2
		C25.2,44.7,25.1,44.7,25,44.7z M25,39.6c-1.8,0-3.2,1.4-3.2,3.2c0,1.8,1.4,3.2,3.2,3.2c1.8,0,3.2-1.4,3.2-3.2c0,0,0,0,0,0
		C28.2,41.1,26.8,39.6,25,39.6z M25,44.7c-1-0.1-1.8-1-1.7-2c0.1-0.9,0.8-1.6,1.7-1.7c1-0.1,1.9,0.7,2,1.7c0.1,1-0.7,1.9-1.7,2
		C25.2,44.7,25.1,44.7,25,44.7z M31.6,38.2H18.4c-0.7,0-0.9,0.2-0.9,0.9c0,2.5,0,5.1,0,7.6c0,0.7,0.2,0.9,0.9,0.9h13.3
		c0.7,0,0.9-0.2,0.9-0.9v-7.5C32.5,38.4,32.3,38.2,31.6,38.2L31.6,38.2z M31.2,45.8c0,0.3,0,0.4-0.4,0.4c-3.9,0-7.7,0-11.6,0
		c-0.3,0-0.4-0.1-0.4-0.4c0-2,0-4,0-5.9c0-0.3,0.1-0.4,0.4-0.4h11.5c0.3,0,0.4,0.1,0.4,0.4C31.1,41.9,31.1,43.8,31.2,45.8L31.2,45.8
		z M25,39.6c-1.8,0-3.2,1.4-3.2,3.2c0,1.8,1.4,3.2,3.2,3.2c1.8,0,3.2-1.4,3.2-3.2c0,0,0,0,0,0C28.2,41.1,26.8,39.6,25,39.6z
		 M25,44.7c-1-0.1-1.8-1-1.7-2c0.1-0.9,0.8-1.6,1.7-1.7c1-0.1,1.9,0.7,2,1.7c0.1,1-0.7,1.9-1.7,2C25.2,44.7,25.1,44.7,25,44.7z
		 M25,39.6c-1.8,0-3.2,1.4-3.2,3.2c0,1.8,1.4,3.2,3.2,3.2c1.8,0,3.2-1.4,3.2-3.2c0,0,0,0,0,0C28.2,41.1,26.8,39.6,25,39.6z M25,44.7
		c-1-0.1-1.8-1-1.7-2c0.1-0.9,0.8-1.6,1.7-1.7c1-0.1,1.9,0.7,2,1.7c0.1,1-0.7,1.9-1.7,2C25.2,44.7,25.1,44.7,25,44.7z M25,39.6
		c-1.8,0-3.2,1.4-3.2,3.2c0,1.8,1.4,3.2,3.2,3.2c1.8,0,3.2-1.4,3.2-3.2c0,0,0,0,0,0C28.2,41.1,26.8,39.6,25,39.6z M25,44.7
		c-1-0.1-1.8-1-1.7-2c0.1-0.9,0.8-1.6,1.7-1.7c1-0.1,1.9,0.7,2,1.7c0.1,1-0.7,1.9-1.7,2C25.2,44.7,25.1,44.7,25,44.7z"/>
	<path class="st0" d="M40.2,39c0-0.9-0.6-1.7-1.5-2c-1-0.4-2.2-0.5-3.3-0.2c-1.3,0.1-2.4,1.2-2.4,2.5c-0.1,1,0,2,0,2.9
		c0,1,0,1.8,0,2.7c0,1,0.3,1.9,1,2.6c0.9,1.1,2.4,1.5,3.7,1c1.3-0.3,2.3-1.4,2.5-2.8C40.4,43.4,40.4,41.2,40.2,39z M38.8,45.2
		c-0.1,1.1-0.9,1.9-2,2c-1,0.1-1.9-0.4-2.2-1.3h1.2c0.5,0,0.7-0.3,0.7-0.7c0-0.4-0.3-0.7-0.7-0.7c0,0,0,0,0,0c-0.4,0-0.7,0-1.1,0
		c-0.3,0-0.4,0-0.4-0.4c0-0.1,0-0.2,0-0.3c0-0.3,0-0.4,0.4-0.4c0.4,0,0.7,0,1.1,0c0.4,0,0.7-0.3,0.7-0.6c0,0,0,0,0-0.1
		c0-0.4-0.3-0.6-0.7-0.7c-0.4,0-0.7,0-1.1,0c-0.3,0-0.5-0.1-0.4-0.4c0-0.1,0-0.3,0-0.4c0-0.2,0.1-0.3,0.3-0.3s0.7,0,1,0
		c0.6,0,0.9-0.3,0.9-0.7s-0.3-0.7-0.9-0.7c-0.3,0-0.6,0-0.9,0c-0.4,0-0.4-0.1-0.3-0.4c0.1-0.5,0.4-0.9,0.9-1c0.9-0.2,1.8-0.2,2.7,0
		c0.6,0.1,0.9,0.7,0.9,1.3C38.9,41.3,38.9,43.3,38.8,45.2z"/>
	<path class="st0" d="M17,42.6c0-1.1,0-2,0-2.9c0.1-1.2-0.6-2.4-1.8-2.8c-1-0.3-2-0.4-3-0.2c-1.4,0.1-2.5,1.3-2.4,2.7
		c-0.1,1.8,0,3.7,0,5.5c0,2,1.6,3.6,3.5,3.7c0.1,0,0.2,0,0.3,0c1.7-0.1,3.2-1.4,3.4-3.1C17,44.5,17,43.5,17,42.6z M15.7,44
		c0,0.4-0.1,0.5-0.5,0.5c-0.3,0-0.7,0-1,0c-0.5,0-0.8,0.3-0.8,0.7s0.3,0.7,0.8,0.7h1.1c-0.4,0.9-1.3,1.5-2.3,1.3c-1-0.1-1.8-1-1.9-2
		c0-1.9,0-3.8,0-5.8c-0.1-0.7,0.4-1.3,1.1-1.4c0,0,0,0,0,0c0.7-0.2,1.5-0.2,2.3,0c0.4,0.1,0.7,0.3,0.8,0.6c0.4,0.7,0.2,0.9-0.5,0.9
		c-0.3,0-0.6,0-0.9,0c-0.3,0-0.5,0.3-0.5,0.6c0,0.3,0.2,0.6,0.5,0.7c0.4,0.1,0.9,0.1,1.3,0c0.3,0,0.4,0.1,0.4,0.4
		c0,0.8,0,0.8-0.8,0.8h-0.7c-0.5,0-0.7,0.3-0.7,0.7c0,0.4,0.3,0.7,0.7,0.7c0,0,0,0,0.1,0c0.3,0,0.6,0,0.9,0
		C15.5,43.4,15.7,43.5,15.7,44z"/>
	<path class="st0" d="M31.1,16.3h-4.8c-0.3,0-0.5,0.1-0.8,0.2c-0.3,0.2-0.7,0.3-1,0.1c-0.3-0.2-0.7-0.4-1.2-0.3h-2.1
		c-0.8,0-1.7,0-2.5,0c-0.6,0-0.9,0.3-0.9,0.9c0,0.5,0.1,0.9,0.2,1.4c0,1.4,1.2,2.6,2.6,2.6c1.6,0.2,2.8-0.2,3.3-1.9
		c0.1-0.3,0.2-0.7,0.3-1c0-0.1,0.1-0.2,0.2-0.3c0.7-0.1,0.9,0,1.1,0.7c0,0.1,0.1,0.3,0.1,0.5c0.3,1.4,1.7,2.4,3.1,2.1
		c0,0,0.1,0,0.1,0c1.3,0,2.4-0.9,2.7-2.2c0.1-0.6,0.2-1.1,0.2-1.7C32,16.5,31.8,16.3,31.1,16.3z M23.1,17.9c-0.1,0.3-0.2,0.6-0.3,1
		c-0.3,0.8-0.5,1-1.5,1c-1.2,0-1.9-0.7-1.9-2c0-0.2,0.1-0.2,0.3-0.2h3.2C23.1,17.6,23.1,17.7,23.1,17.9L23.1,17.9z M30.6,17.9
		c0,0.1,0,0.2-0.1,0.4c-0.1,1-1.1,1.7-2.1,1.6c-0.2,0-0.4-0.1-0.5-0.2c-0.2-0.1-0.4-0.3-0.5-0.6c-0.1-0.4-0.3-0.8-0.4-1.2
		s0-0.3,0.3-0.3h3.1C30.5,17.6,30.6,17.7,30.6,17.9L30.6,17.9z"/>
	<path class="st0" d="M27,32.3h-2c-0.7,0-1.4,0-2.2,0c-0.4-0.1-0.8,0.2-0.8,0.6c0,0.1,0,0.3,0,0.4c0.2,1.1,0.5,2.2,0.7,3.3
		c0,0.4,0.4,0.7,0.8,0.7h2.8c0.4,0,0.8-0.3,0.8-0.7c0.2-1.1,0.5-2.1,0.7-3.2C28,32.7,27.8,32.3,27,32.3z M26.4,34
		c-0.1,0.2-0.1,0.5-0.2,0.7s0,1-0.3,1.1c-0.6,0.1-1.1,0.1-1.7,0c-0.1,0-0.2-0.1-0.2-0.2c-0.1-0.5-0.2-1.1-0.4-1.7
		c0-0.2,0-0.3,0.2-0.3h2.3C26.3,33.7,26.5,33.7,26.4,34z"/>
	<path class="st0" d="M25,39.6c-1.8,0-3.2,1.4-3.2,3.2c0,1.8,1.4,3.2,3.2,3.2c1.8,0,3.2-1.4,3.2-3.2c0,0,0,0,0,0
		C28.2,41.1,26.8,39.6,25,39.6z M25,44.7c-1-0.1-1.8-1-1.7-2c0.1-0.9,0.8-1.6,1.7-1.7c1-0.1,1.9,0.7,2,1.7c0.1,1-0.7,1.9-1.7,2
		C25.2,44.7,25.1,44.7,25,44.7z"/>
	<path class="st0" d="M25,39.6c-1.8,0-3.2,1.4-3.2,3.2c0,1.8,1.4,3.2,3.2,3.2c1.8,0,3.2-1.4,3.2-3.2c0,0,0,0,0,0
		C28.2,41.1,26.8,39.6,25,39.6z M25,44.7c-1-0.1-1.8-1-1.7-2c0.1-0.9,0.8-1.6,1.7-1.7c1-0.1,1.9,0.7,2,1.7c0.1,1-0.7,1.9-1.7,2
		C25.2,44.7,25.1,44.7,25,44.7z"/>
</g>
</svg>
