<?xml version="1.0" encoding="utf-8"?>
<!-- Generator: Adobe Illustrator 25.4.1, SVG Export Plug-In . SVG Version: 6.00 Build 0)  -->
<svg version="1.1" id="Layer_1" xmlns="http://www.w3.org/2000/svg" xmlns:xlink="http://www.w3.org/1999/xlink" x="0px" y="0px"
	 viewBox="0 0 50 50" style="enable-background:new 0 0 50 50;" xml:space="preserve">
<style type="text/css">
	.st0{fill:#FFFFFF;}
</style>
<g>
	<path class="st0" d="M21.1,39.4H21c-0.2,0-0.3,0-0.2,0.2c0,0.1,0,0.3,0,0.4c0,0.8,0,0.8,0.8,0.8h0.2c0.4,0.1,0.5-0.1,0.5-0.4
		C22.1,39.4,22.1,39.4,21.1,39.4z M21.1,39.4H21c-0.2,0-0.3,0-0.2,0.2c0,0.1,0,0.3,0,0.4c0,0.8,0,0.8,0.8,0.8h0.2
		c0.4,0.1,0.5-0.1,0.5-0.4C22.1,39.4,22.1,39.4,21.1,39.4z M21.1,39.4H21c-0.2,0-0.3,0-0.2,0.2c0,0.1,0,0.3,0,0.4
		c0,0.8,0,0.8,0.8,0.8h0.2c0.4,0.1,0.5-0.1,0.5-0.4C22.1,39.4,22.1,39.4,21.1,39.4z M21.1,39.4H21c-0.2,0-0.3,0-0.2,0.2
		c0,0.1,0,0.3,0,0.4c0,0.8,0,0.8,0.8,0.8h0.2c0.4,0.1,0.5-0.1,0.5-0.4C22.1,39.4,22.1,39.4,21.1,39.4z M21.1,39.4H21
		c-0.2,0-0.3,0-0.2,0.2c0,0.1,0,0.3,0,0.4c0,0.8,0,0.8,0.8,0.8h0.2c0.4,0.1,0.5-0.1,0.5-0.4C22.1,39.4,22.1,39.4,21.1,39.4z
		 M21.1,39.4H21c-0.2,0-0.3,0-0.2,0.2c0,0.1,0,0.3,0,0.4c0,0.8,0,0.8,0.8,0.8h0.2c0.4,0.1,0.5-0.1,0.5-0.4
		C22.1,39.4,22.1,39.4,21.1,39.4z M21.1,39.4H21c-0.2,0-0.3,0-0.2,0.2c0,0.1,0,0.3,0,0.4c0,0.8,0,0.8,0.8,0.8h0.2
		c0.4,0.1,0.5-0.1,0.5-0.4C22.1,39.4,22.1,39.4,21.1,39.4z M21.1,39.4H21c-0.2,0-0.3,0-0.2,0.2c0,0.1,0,0.3,0,0.4
		c0,0.8,0,0.8,0.8,0.8h0.2c0.4,0.1,0.5-0.1,0.5-0.4C22.1,39.4,22.1,39.4,21.1,39.4z M21.1,39.4H21c-0.2,0-0.3,0-0.2,0.2
		c0,0.1,0,0.3,0,0.4c0,0.8,0,0.8,0.8,0.8h0.2c0.4,0.1,0.5-0.1,0.5-0.4C22.1,39.4,22.1,39.4,21.1,39.4z M21.1,39.4H21
		c-0.2,0-0.3,0-0.2,0.2c0,0.1,0,0.3,0,0.4c0,0.8,0,0.8,0.8,0.8h0.2c0.4,0.1,0.5-0.1,0.5-0.4C22.1,39.4,22.1,39.4,21.1,39.4z
		 M21.1,39.4H21c-0.2,0-0.3,0-0.2,0.2c0,0.1,0,0.3,0,0.4c0,0.8,0,0.8,0.8,0.8h0.2c0.4,0.1,0.5-0.1,0.5-0.4
		C22.1,39.4,22.1,39.4,21.1,39.4z M28.7,17.3l-1.1-0.7c-0.1,0-0.2,0-0.2,0.1c-0.2,0.3-0.4,0.6-0.6,0.9c-0.1,0.1,0,0.2,0.1,0.2
		c1,0.8,1,0.8,1.6-0.3l0.1-0.2C28.7,17.4,28.7,17.3,28.7,17.3z M31,18.7l-1-0.6c-0.2-0.1-0.2,0-0.2,0.1c-0.7,1-0.6,1.2,0.4,1.7
		c0.1,0,0.1,0.1,0.2,0c0.2-0.4,0.5-0.7,0.7-1.1C31.1,18.8,31.1,18.7,31,18.7z M21.1,39.4H21c-0.2,0-0.3,0-0.2,0.2c0,0.1,0,0.3,0,0.4
		c0,0.8,0,0.8,0.8,0.8h0.2c0.4,0.1,0.5-0.1,0.5-0.4C22.1,39.4,22.1,39.4,21.1,39.4L21.1,39.4z M31,18.7l-1-0.6
		c-0.2-0.1-0.2,0-0.2,0.1c-0.7,1-0.6,1.2,0.4,1.7c0.1,0,0.1,0.1,0.2,0c0.2-0.4,0.5-0.7,0.7-1.1C31.1,18.8,31.1,18.7,31,18.7z
		 M28.6,17.3l-1.1-0.7c-0.1,0-0.2,0-0.2,0.1c-0.2,0.3-0.4,0.6-0.6,0.9c-0.1,0.1,0,0.2,0.1,0.2c1,0.8,1,0.8,1.6-0.3l0.1-0.2
		C28.7,17.4,28.7,17.3,28.6,17.3L28.6,17.3z M21.1,39.4H21c-0.2,0-0.3,0-0.2,0.2c0,0.1,0,0.3,0,0.4c0,0.8,0,0.8,0.8,0.8h0.2
		c0.4,0.1,0.5-0.1,0.5-0.4C22.1,39.4,22.1,39.4,21.1,39.4z M28.7,17.3l-1.1-0.7c-0.1,0-0.2,0-0.2,0.1c-0.2,0.3-0.4,0.6-0.6,0.9
		c-0.1,0.1,0,0.2,0.1,0.2c1,0.8,1,0.8,1.6-0.3l0.1-0.2C28.7,17.4,28.7,17.3,28.7,17.3z M31,18.7l-1-0.6c-0.2-0.1-0.2,0-0.2,0.1
		c-0.7,1-0.6,1.2,0.4,1.7c0.1,0,0.1,0.1,0.2,0c0.2-0.4,0.5-0.7,0.7-1.1C31.1,18.8,31.1,18.7,31,18.7z M21.1,39.4H21
		c-0.2,0-0.3,0-0.2,0.2c0,0.1,0,0.3,0,0.4c0,0.8,0,0.8,0.8,0.8h0.2c0.4,0.1,0.5-0.1,0.5-0.4C22.1,39.4,22.1,39.4,21.1,39.4
		L21.1,39.4z M31,18.7l-1-0.6c-0.2-0.1-0.2,0-0.2,0.1c-0.7,1-0.6,1.2,0.4,1.7c0.1,0,0.1,0.1,0.2,0c0.2-0.4,0.5-0.7,0.7-1.1
		C31.1,18.8,31.1,18.7,31,18.7z M28.6,17.3l-1.1-0.7c-0.1,0-0.2,0-0.2,0.1c-0.2,0.3-0.4,0.6-0.6,0.9c-0.1,0.1,0,0.2,0.1,0.2
		c1,0.8,1,0.8,1.6-0.3l0.1-0.2C28.7,17.4,28.7,17.3,28.6,17.3L28.6,17.3z M21.1,39.4H21c-0.2,0-0.3,0-0.2,0.2c0,0.1,0,0.3,0,0.4
		c0,0.8,0,0.8,0.8,0.8h0.2c0.4,0.1,0.5-0.1,0.5-0.4C22.1,39.4,22.1,39.4,21.1,39.4z M28.7,17.3l-1.1-0.7c-0.1,0-0.2,0-0.2,0.1
		c-0.2,0.3-0.4,0.6-0.6,0.9c-0.1,0.1,0,0.2,0.1,0.2c1,0.8,1,0.8,1.6-0.3l0.1-0.2C28.7,17.4,28.7,17.3,28.7,17.3z M31,18.7l-1-0.6
		c-0.2-0.1-0.2,0-0.2,0.1c-0.7,1-0.6,1.2,0.4,1.7c0.1,0,0.1,0.1,0.2,0c0.2-0.4,0.5-0.7,0.7-1.1C31.1,18.8,31.1,18.7,31,18.7z
		 M21.1,39.4H21c-0.2,0-0.3,0-0.2,0.2c0,0.1,0,0.3,0,0.4c0,0.8,0,0.8,0.8,0.8h0.2c0.4,0.1,0.5-0.1,0.5-0.4
		C22.1,39.4,22.1,39.4,21.1,39.4L21.1,39.4z M31,18.7l-1-0.6c-0.2-0.1-0.2,0-0.2,0.1c-0.7,1-0.6,1.2,0.4,1.7c0.1,0,0.1,0.1,0.2,0
		c0.2-0.4,0.5-0.7,0.7-1.1C31.1,18.8,31.1,18.7,31,18.7z M28.6,17.3l-1.1-0.7c-0.1,0-0.2,0-0.2,0.1c-0.2,0.3-0.4,0.6-0.6,0.9
		c-0.1,0.1,0,0.2,0.1,0.2c1,0.8,1,0.8,1.6-0.3l0.1-0.2C28.7,17.4,28.7,17.3,28.6,17.3L28.6,17.3z M21.1,39.4H21
		c-0.2,0-0.3,0-0.2,0.2c0,0.1,0,0.3,0,0.4c0,0.8,0,0.8,0.8,0.8h0.2c0.4,0.1,0.5-0.1,0.5-0.4C22.1,39.4,22.1,39.4,21.1,39.4z
		 M28.7,17.3l-1.1-0.7c-0.1,0-0.2,0-0.2,0.1c-0.2,0.3-0.4,0.6-0.6,0.9c-0.1,0.1,0,0.2,0.1,0.2c1,0.8,1,0.8,1.6-0.3l0.1-0.2
		C28.7,17.4,28.7,17.3,28.7,17.3z M31,18.7l-1-0.6c-0.2-0.1-0.2,0-0.2,0.1c-0.7,1-0.6,1.2,0.4,1.7c0.1,0,0.1,0.1,0.2,0
		c0.2-0.4,0.5-0.7,0.7-1.1C31.1,18.8,31.1,18.7,31,18.7z M21.1,39.4H21c-0.2,0-0.3,0-0.2,0.2c0,0.1,0,0.3,0,0.4c0,0.8,0,0.8,0.8,0.8
		h0.2c0.4,0.1,0.5-0.1,0.5-0.4C22.1,39.4,22.1,39.4,21.1,39.4L21.1,39.4z M31,18.7l-1-0.6c-0.2-0.1-0.2,0-0.2,0.1
		c-0.7,1-0.6,1.2,0.4,1.7c0.1,0,0.1,0.1,0.2,0c0.2-0.4,0.5-0.7,0.7-1.1C31.1,18.8,31.1,18.7,31,18.7z M28.6,17.3l-1.1-0.7
		c-0.1,0-0.2,0-0.2,0.1c-0.2,0.3-0.4,0.6-0.6,0.9c-0.1,0.1,0,0.2,0.1,0.2c1,0.8,1,0.8,1.6-0.3l0.1-0.2
		C28.7,17.4,28.7,17.3,28.6,17.3L28.6,17.3z M21.1,39.4H21c-0.2,0-0.3,0-0.2,0.2c0,0.1,0,0.3,0,0.4c0,0.8,0,0.8,0.8,0.8h0.2
		c0.4,0.1,0.5-0.1,0.5-0.4C22.1,39.4,22.1,39.4,21.1,39.4z M28.7,17.3l-1.1-0.7c-0.1,0-0.2,0-0.2,0.1c-0.2,0.3-0.4,0.6-0.6,0.9
		c-0.1,0.1,0,0.2,0.1,0.2c1,0.8,1,0.8,1.6-0.3l0.1-0.2C28.7,17.4,28.7,17.3,28.7,17.3z M31,18.7l-1-0.6c-0.2-0.1-0.2,0-0.2,0.1
		c-0.7,1-0.6,1.2,0.4,1.7c0.1,0,0.1,0.1,0.2,0c0.2-0.4,0.5-0.7,0.7-1.1C31.1,18.8,31.1,18.7,31,18.7z M21.1,39.4H21
		c-0.2,0-0.3,0-0.2,0.2c0,0.1,0,0.3,0,0.4c0,0.8,0,0.8,0.8,0.8h0.2c0.4,0.1,0.5-0.1,0.5-0.4C22.1,39.4,22.1,39.4,21.1,39.4
		L21.1,39.4z M31,18.7l-1-0.6c-0.2-0.1-0.2,0-0.2,0.1c-0.7,1-0.6,1.2,0.4,1.7c0.1,0,0.1,0.1,0.2,0c0.2-0.4,0.5-0.7,0.7-1.1
		C31.1,18.8,31.1,18.7,31,18.7z M28.6,17.3l-1.1-0.7c-0.1,0-0.2,0-0.2,0.1c-0.2,0.3-0.4,0.6-0.6,0.9c-0.1,0.1,0,0.2,0.1,0.2
		c1,0.8,1,0.8,1.6-0.3l0.1-0.2C28.7,17.4,28.7,17.3,28.6,17.3L28.6,17.3z M21.1,39.4H21c-0.2,0-0.3,0-0.2,0.2c0,0.1,0,0.3,0,0.4
		c0,0.8,0,0.8,0.8,0.8h0.2c0.4,0.1,0.5-0.1,0.5-0.4C22.1,39.4,22.1,39.4,21.1,39.4z M28.7,17.3l-1.1-0.7c-0.1,0-0.2,0-0.2,0.1
		c-0.2,0.3-0.4,0.6-0.6,0.9c-0.1,0.1,0,0.2,0.1,0.2c1,0.8,1,0.8,1.6-0.3l0.1-0.2C28.7,17.4,28.7,17.3,28.7,17.3z M31,18.7l-1-0.6
		c-0.2-0.1-0.2,0-0.2,0.1c-0.7,1-0.6,1.2,0.4,1.7c0.1,0,0.1,0.1,0.2,0c0.2-0.4,0.5-0.7,0.7-1.1C31.1,18.8,31.1,18.7,31,18.7z
		 M21.1,39.4H21c-0.2,0-0.3,0-0.2,0.2c0,0.1,0,0.3,0,0.4c0,0.8,0,0.8,0.8,0.8h0.2c0.4,0.1,0.5-0.1,0.5-0.4
		C22.1,39.4,22.1,39.4,21.1,39.4L21.1,39.4z M31,18.7l-1-0.6c-0.2-0.1-0.2,0-0.2,0.1c-0.7,1-0.6,1.2,0.4,1.7c0.1,0,0.1,0.1,0.2,0
		c0.2-0.4,0.5-0.7,0.7-1.1C31.1,18.8,31.1,18.7,31,18.7z M28.6,17.3l-1.1-0.7c-0.1,0-0.2,0-0.2,0.1c-0.2,0.3-0.4,0.6-0.6,0.9
		c-0.1,0.1,0,0.2,0.1,0.2c1,0.8,1,0.8,1.6-0.3l0.1-0.2C28.7,17.4,28.7,17.3,28.6,17.3L28.6,17.3z M21.1,39.4H21
		c-0.2,0-0.3,0-0.2,0.2c0,0.1,0,0.3,0,0.4c0,0.8,0,0.8,0.8,0.8h0.2c0.4,0.1,0.5-0.1,0.5-0.4C22.1,39.4,22.1,39.4,21.1,39.4z
		 M28.7,17.3l-1.1-0.7c-0.1,0-0.2,0-0.2,0.1c-0.2,0.3-0.4,0.6-0.6,0.9c-0.1,0.1,0,0.2,0.1,0.2c1,0.8,1,0.8,1.6-0.3l0.1-0.2
		C28.7,17.4,28.7,17.3,28.7,17.3z M31,18.7l-1-0.6c-0.2-0.1-0.2,0-0.2,0.1c-0.7,1-0.6,1.2,0.4,1.7c0.1,0,0.1,0.1,0.2,0
		c0.2-0.4,0.5-0.7,0.7-1.1C31.1,18.8,31.1,18.7,31,18.7z M21.1,39.4H21c-0.2,0-0.3,0-0.2,0.2c0,0.1,0,0.3,0,0.4c0,0.8,0,0.8,0.8,0.8
		h0.2c0.4,0.1,0.5-0.1,0.5-0.4C22.1,39.4,22.1,39.4,21.1,39.4L21.1,39.4z M31,18.7l-1-0.6c-0.2-0.1-0.2,0-0.2,0.1
		c-0.7,1-0.6,1.2,0.4,1.7c0.1,0,0.1,0.1,0.2,0c0.2-0.4,0.5-0.7,0.7-1.1C31.1,18.8,31.1,18.7,31,18.7z M28.6,17.3l-1.1-0.7
		c-0.1,0-0.2,0-0.2,0.1c-0.2,0.3-0.4,0.6-0.6,0.9c-0.1,0.1,0,0.2,0.1,0.2c1,0.8,1,0.8,1.6-0.3l0.1-0.2
		C28.7,17.4,28.7,17.3,28.6,17.3L28.6,17.3z M21.1,39.4H21c-0.2,0-0.3,0-0.2,0.2c0,0.1,0,0.3,0,0.4c0,0.8,0,0.8,0.8,0.8h0.2
		c0.4,0.1,0.5-0.1,0.5-0.4C22.1,39.4,22.1,39.4,21.1,39.4z M28.7,17.3l-1.1-0.7c-0.1,0-0.2,0-0.2,0.1c-0.2,0.3-0.4,0.6-0.6,0.9
		c-0.1,0.1,0,0.2,0.1,0.2c1,0.8,1,0.8,1.6-0.3l0.1-0.2C28.7,17.4,28.7,17.3,28.7,17.3z M31,18.7l-1-0.6c-0.2-0.1-0.2,0-0.2,0.1
		c-0.7,1-0.6,1.2,0.4,1.7c0.1,0,0.1,0.1,0.2,0c0.2-0.4,0.5-0.7,0.7-1.1C31.1,18.8,31.1,18.7,31,18.7z M21.1,39.4H21
		c-0.2,0-0.3,0-0.2,0.2c0,0.1,0,0.3,0,0.4c0,0.8,0,0.8,0.8,0.8h0.2c0.4,0.1,0.5-0.1,0.5-0.4C22.1,39.4,22.1,39.4,21.1,39.4
		L21.1,39.4z M31,18.7l-1-0.6c-0.2-0.1-0.2,0-0.2,0.1c-0.7,1-0.6,1.2,0.4,1.7c0.1,0,0.1,0.1,0.2,0c0.2-0.4,0.5-0.7,0.7-1.1
		C31.1,18.8,31.1,18.7,31,18.7z M28.6,17.3l-1.1-0.7c-0.1,0-0.2,0-0.2,0.1c-0.2,0.3-0.4,0.6-0.6,0.9c-0.1,0.1,0,0.2,0.1,0.2
		c1,0.8,1,0.8,1.6-0.3l0.1-0.2C28.7,17.4,28.7,17.3,28.6,17.3L28.6,17.3z M49.5,49.2c0-0.4,0-0.8,0-1.1c-0.2-0.1-0.4-0.2-0.7-0.1
		h-4.2c-1,0-0.8,0-0.8-0.8c0.1-0.8,0-1.7-0.3-2.4c-0.1-0.2,0-0.3,0.1-0.5c0.4-1.2,0.4-2.5,0-3.6c-0.1-0.2-0.1-0.5,0-0.7
		c0.4-1.2,0.4-2.5,0-3.6c-0.1-0.2-0.1-0.5,0-0.7c0.4-1.2,0.4-2.4,0-3.6c-0.1-0.2-0.1-0.5,0-0.7c0.4-1.2,0.4-2.4,0-3.6
		c-0.1-0.2-0.1-0.5,0-0.7c0.1-0.2,0.1-0.3,0.2-0.5c0.1-0.4,0.4-0.5,0.9-0.4s0.3,0.3,0.3,0.5c0,0.9,0,1.9,0,2.8c0,1.3,1,2.3,2.3,2.3
		c0,0,0,0,0,0c1.2,0,2.2-1,2.2-2.2c0-0.1,0-0.1,0-0.2c0-3.5,0-6.9,0-10.4c0-0.4-0.2-0.8-0.6-1c-2.2-1.3-4.4-2.6-6.7-3.9
		c-0.3-0.1-0.5-0.4-0.5-0.7c0-1.7,0-3.5,0-5.2c0-0.2,0.1-0.4,0.3-0.5c0.7-0.5,1.2-1.3,1.2-2.2c0-0.3,0.2-0.6,0.4-0.8
		c0.8-0.5,1.1-1.4,0.9-2.3c-0.1-0.9-0.8-1.6-1.7-1.7H33c-0.5,0.1-0.9,0.3-1.2,0.7c-0.6,0.6-0.7,1.6-0.4,2.4C31.8,4.4,32.6,5,33.5,5
		c0.6,0,0.6,0,0.6,0.6v3.2c0,0.5,0,0.5-0.4,0.2c-2.7-1.6-5.4-3.1-8-4.7c-0.4-0.3-1-0.3-1.4,0c-1.9,1.1-3.8,2.2-5.7,3.4l-4.8,2.8
		c-0.2,0.1-0.5,0.2-0.5,0.5c0.1,0.5,0.3,0.9,0.6,1.1c0.3,0.2,0.5,0,0.8-0.2C16.5,11,18.1,10,19.7,9s3.2-1.9,4.8-2.8
		c0.3-0.2,0.7-0.2,1,0c0.3,0.2,0.7,0.4,1.1,0.6l20.7,12.2c0.4,0.2,0.6,0.6,0.5,1c0,3,0,5.9,0,8.9c0,0.2,0,0.4-0.1,0.6
		c-0.1,0.2-0.3,0.4-0.5,0.4c-0.2,0-0.4-0.2-0.5-0.4c-0.1-0.2-0.1-0.4-0.1-0.7c0-2.5,0-4.9,0-7.4c0.1-0.5-0.2-0.9-0.6-1.1
		c-4.7-2.8-9.4-5.6-14.1-8.4c-2.1-1.2-4.1-2.4-6.2-3.7c-0.4-0.3-1-0.3-1.4,0c-0.5,0.3-1,0.7-1.6,0.9c-0.5,0.2-0.8,0.8-0.8,1.3
		c0,3.9,0,7.9,0,11.8c0,0.2,0,0.4,0,0.6c0,0.3-0.3,0.5-0.5,0.4c-0.3,0-0.5-0.2-0.5-0.5c0-0.2,0-0.4,0-0.6c0-1.3,0-2.6,0-3.9
		c0-1.3-1-2.3-2.2-2.3s-2.3,1-2.3,2.2c-0.1,0.5-0.3,0.7-0.6,0.7s-0.6-0.3-0.6-0.8c0-0.1,0-0.3,0-0.4c0-1.1,0-2.1,0-3.2
		c0-0.3,0.1-0.6-0.1-0.8s-0.5,0.1-0.7,0.3c-3.4,2-6.8,4-10.3,6.1c-0.4,0.2-0.6,0.6-0.6,1c0,2,0,4,0,6c0,0.2,0,0.4,0,0.6
		c-0.1,0.2-0.3,0.4-0.5,0.4c-0.3,0-0.5-0.2-0.5-0.4c-0.1-0.2-0.1-0.4-0.1-0.6c0-2.5,0-4.9,0-7.4c0-0.4,0.2-0.8,0.6-1l8.8-5.2
		c0.4-0.2,0.7-0.4,1.1-0.7c0.2-0.1,0.3-0.4,0.2-0.6c0,0,0,0,0-0.1L12.8,12c-0.4-0.6-0.5-0.6-1.1-0.3l-4.3,2.6
		c-2.2,1.3-4.3,2.6-6.4,3.8c-0.2,0.1-0.4,0.3-0.4,0.6c0,3.1,0,6.3,0,9.5c0,0.6,0.3,1.2,0.8,1.6C2,30.3,3,30.4,3.7,30
		c0.8-0.3,1.3-1.1,1.4-2c0-0.5,0-1,0-1.5c0-0.2,0-0.3,0.2-0.4c0.4-0.2,0.8,0,1,0.4c0,0,0,0.1,0,0.1c0.1,0.2,0.1,0.3,0.2,0.5
		c0.1,0.1,0.1,0.3,0,0.4c-0.3,0.8-0.5,1.6-0.3,2.5c0,0.5,0.1,0.9,0.3,1.3c0.1,0.1,0.1,0.3,0.1,0.5c-0.3,0.8-0.5,1.6-0.3,2.4
		c0,0.5,0.1,1,0.3,1.4c0.1,0.1,0.1,0.3,0.1,0.5c-0.3,0.7-0.4,1.5-0.3,2.3c0,0.5,0.1,1.1,0.3,1.6c0.1,0.2,0.1,0.4,0,0.6
		c-0.4,1.2-0.4,2.4,0,3.6c0.1,0.2,0.1,0.5,0,0.7c-0.2,0.4-0.3,0.7-0.3,1.1c0,0.4,0,0.9,0,1.3c0,0.6,0,0.6-0.6,0.6H1.2
		c-0.2,0-0.4,0-0.6,0.1c0,0.3,0,0.7,0,1c0,0.4,0.1,0.4,0.4,0.4h29.7c0.1-0.1,0.1-0.1,0.1-0.2c0.3-1,0-1.4-1-1.4h-4.1
		c-0.4,0-0.5-0.1-0.5-0.5s0-0.9,0-1.3c0-0.7,0-0.7,0.7-0.7c3.2,0,6.5,0,9.7,0h1.7c0.3,0,0.5,0.1,0.5,0.5c0,0.5,0,1,0,1.6
		s-0.1,0.5-0.5,0.5c-0.6,0-1.2,0-1.8,0c-0.2,0-0.5,0-0.5,0.3c-0.1,0.4-0.1,0.9,0.1,1.2h14.1C49.4,49.5,49.5,49.4,49.5,49.2z
		 M40,12.9l-4-2.4c-0.1-0.1-0.2-0.2-0.2-0.4c0-1.7,0-3.3,0-5c0-0.2,0.1-0.3,0.3-0.3c0.7,0,1.4,0,2.1,0c0.3,0,0.4,0.1,0.4,0.4
		c-0.1,1,0.4,1.9,1.3,2.3c0.1,0.1,0.2,0.2,0.2,0.3L40,12.9z M41.4,3.9c0,0.5,0,1,0,1.5c0,0.4-0.3,0.7-0.7,0.7
		c-0.4,0-0.7-0.3-0.7-0.7c0-0.5,0-1.1,0-1.6c0-0.3,0-0.5-0.5-0.5c-1,0-1.9,0-2.9,0h-2.9c-0.6,0-0.9-0.2-0.9-0.7s0.3-0.7,0.9-0.7H42
		c0.6,0,0.9,0.3,0.9,0.7S42.6,3.4,42,3.3S41.4,3.5,41.4,3.9L41.4,3.9z M23.6,14.2c0-0.2,0.1-0.3,0.3-0.5c0.8-0.7,1.4-0.6,2.3,0
		c4.5,2.8,9.1,5.5,13.6,8.2l0.4,0.2v0.1c-5.4,0-10.8,0-16.2,0c-0.3,0-0.4,0-0.4-0.3C23.6,19.3,23.6,16.8,23.6,14.2z M14,20
		c0.5,0.8,1.5,1.1,2.4,0.7c0.9-0.3,1.5-1.1,1.5-2c0-0.4,0.3-0.7,0.7-0.7c0,0,0,0,0,0c0.4,0,0.7,0.3,0.7,0.7c0,1.1,0,2.2,0,3.3
		c0,0.3-0.2,0.2-0.3,0.2H9.9v-0.1c1.2-0.8,2.5-1.5,3.8-2.3C13.8,19.8,13.9,19.8,14,20z M12.1,28h10.5c0.3,0,0.5,0.1,0.6,0.3
		c0.4,0.7,1.1,1.1,1.9,1c0.8,0,1.5-0.4,1.9-1.1c0.1-0.2,0.2-0.3,0.5-0.3H38c-0.1,0.9-0.1,1.9,0,2.8H12.1
		C12.1,29.8,12.1,28.9,12.1,28z M24.3,27.3c0-0.4,0.3-0.7,0.7-0.7c0.4,0,0.7,0.3,0.7,0.7c0,0.4-0.3,0.7-0.7,0.7
		C24.6,28,24.3,27.7,24.3,27.3C24.3,27.2,24.3,27.2,24.3,27.3L24.3,27.3z M38,35.1L38,35.1c-0.5,0-1.1,0.2-1.4-0.1s-0.1-0.8-0.1-1.3
		v-0.1c0-0.5-0.2-1.1,0.1-1.3s0.9,0,1.4,0C37.9,33.2,37.9,34.2,38,35.1z M38,39.4L38,39.4c-0.5,0-1.1,0.2-1.4-0.1s-0.1-0.8-0.1-1.3
		s0-0.8,0-1.2s0.1-0.3,0.3-0.3s0.8,0,1.2,0C37.9,37.5,37.9,38.4,38,39.4z M35,39.1c0,0.2-0.1,0.3-0.3,0.3c-0.7,0-1.5,0-2.2,0
		c-0.3,0-0.3-0.1-0.3-0.3c0-1.1,0-2.2,0-3.2s0-2.2,0-3.2c0-0.3,0.1-0.3,0.3-0.3h2.2c0.2,0,0.3,0.1,0.3,0.3V39.1z M30.7,35.8
		c0,1.1,0,2.2,0,3.2c0,0.3,0,0.4-0.4,0.4c-0.7,0-1.5,0-2.2,0c-0.3,0-0.3-0.1-0.3-0.3c0-2.2,0-4.3,0-6.5c0-0.3,0.1-0.3,0.4-0.3
		c0.7,0,1.5,0,2.2,0c0.3,0,0.3,0.1,0.3,0.3C30.7,33.7,30.7,34.7,30.7,35.8L30.7,35.8z M13.5,42.2c0,0.1,0,0.2,0,0.2
		c0,1.5,0,1.5-1.5,1.2c0.1-0.9,0.1-1.9,0-2.8l0,0c0.5,0,1.1-0.2,1.4,0S13.5,41.8,13.5,42.2L13.5,42.2z M12,36.6c0.4,0,0.8,0,1.2,0
		c0.2,0,0.3,0.1,0.3,0.3c0,0.8,0,1.6,0,2.3c0,0.2,0,0.3-0.2,0.3c-0.4,0-0.9,0-1.3,0C12.1,38.5,12.1,37.5,12,36.6L12,36.6z
		 M13.3,32.3c0.2,0,0.3,0.1,0.3,0.3c0,0.8,0,1.6,0,2.3c0,0.2-0.1,0.3-0.3,0.3h-1.2c0.1-1,0.1-1.9,0-2.9L13.3,32.3z M6.4,22.9
		c0,0.1,0,0.3,0,0.4c0,1.1-0.1,1.2-1.2,1C5,24.4,5,24.2,5,24.1v-2.2c0-0.1,0.1-0.3,0.2-0.3l8.3-4.9c0.4,1.2-0.2,1.9-1.2,2.4
		c-1.9,1-3.7,2.2-5.6,3.3C6.5,22.4,6.3,22.7,6.4,22.9z M9.3,48c-1.4,0-1.4-0.1-1.4-1.5s0.1-1.4,1.4-1.4s1.4,0.1,1.4,1.5
		S10.6,48,9.3,48z M9.3,43.7c-1.4,0-1.5-0.1-1.5-1.5s0.1-1.4,1.4-1.4s1.4,0.1,1.4,1.5S10.6,43.7,9.3,43.7L9.3,43.7z M9.2,39.4
		c-1.3,0-1.4-0.1-1.4-1.4s0.1-1.4,1.4-1.4s1.4,0.1,1.4,1.5S10.6,39.4,9.2,39.4L9.2,39.4z M9.2,35.1c-1.4,0-1.4-0.1-1.4-1.5
		s0.1-1.4,1.4-1.4l0,0c1.3,0,1.4,0.1,1.4,1.4S10.6,35.1,9.2,35.1L9.2,35.1z M9.2,30.8c-1.3,0-1.4-0.1-1.4-1.4S7.9,28,9.3,28
		s1.4,0.1,1.4,1.4S10.6,30.8,9.2,30.8L9.2,30.8z M10.7,25.8c0,0.4-0.3,0.7-0.7,0.8c0,0,0,0-0.1,0c-0.4,0-0.9,0-1.3,0
		c-0.4,0-0.7-0.3-0.8-0.7c0,0,0-0.1,0-0.1c0-0.3,0-0.6,0-1s-0.2-0.8,0.1-1s0.7-0.1,1.1-0.1s0.6,0,1,0c0.4,0,0.7,0.3,0.7,0.7
		c0,0,0,0,0,0C10.7,24.8,10.7,25.3,10.7,25.8L10.7,25.8z M13.5,46.5c0,0.4,0,0.8,0,1.2c0,0.2,0,0.4-0.3,0.3s-0.8,0-1.2,0
		c0.1-0.9,0.1-1.9,0-2.8l0,0c0.5,0,1.1-0.2,1.4,0.1S13.5,46,13.5,46.5L13.5,46.5z M23.5,40.1c0,2.5,0,5,0,7.5c0,0.4-0.1,0.4-0.4,0.4
		c-2.6,0-5.2,0-7.7,0c-0.4,0-0.4-0.1-0.4-0.4c0-5,0-9.9,0-14.9c0-0.3,0.1-0.4,0.4-0.4c2.6,0,5.1,0,7.7,0c0.4,0,0.4,0.1,0.4,0.4
		C23.6,35.2,23.6,37.7,23.5,40.1L23.5,40.1z M25,32.3c0.4-0.1,0.8-0.1,1.2-0.1c0.1,0,0.2,0.1,0.2,0.2c0,0.8,0,1.7,0,2.5
		c0,0.1,0,0.2-0.2,0.2h-0.1C25,35.2,25,35.2,25,34v-0.4c0-0.1,0-0.3,0-0.4C25,32.9,24.9,32.4,25,32.3L25,32.3z M25,36.8
		c0.1-0.6,0.6-0.1,1-0.2c0.1,0,0.5-0.2,0.5,0.2s0,0.8,0,1.2c0,0.4,0,0.8,0,1.1c-0.1,0.6-0.6,0.1-1,0.2c-0.1,0-0.5,0.2-0.5-0.2
		C25,38.4,25,37.6,25,36.8L25,36.8z M37.6,43.7H25.4c-0.4,0-0.5-0.1-0.5-0.4c0-0.7,0-1.3,0-2c0-0.3,0.1-0.4,0.4-0.4H38
		c-0.1,0.9-0.1,1.9,0,2.8L37.6,43.7z M37.5,26.5h-10c-0.3,0-0.5-0.1-0.6-0.3c-0.4-0.7-1.1-1.1-1.9-1.1c-0.8,0-1.5,0.4-1.9,1.1
		c-0.1,0.2-0.2,0.3-0.5,0.3H12.1c0.1-0.9,0.1-1.9,0-2.8h0.2H19c0.2,0,0.4,0.1,0.5,0.3c0.3,0.7,1.1,1.2,1.9,1.1
		c0.8,0,1.5-0.4,1.9-1.1c0.1-0.2,0.2-0.3,0.4-0.3h14.1H38c-0.1,0.9-0.1,1.9,0,2.8L37.5,26.5z M42.2,46.6c0,1.3-0.1,1.4-1.4,1.4
		s-1.4-0.1-1.4-1.4s0.1-1.4,1.5-1.4S42.2,45.2,42.2,46.6L42.2,46.6z M40.8,43.7L40.8,43.7c-1.3,0-1.4-0.1-1.4-1.4s0.1-1.4,1.4-1.4
		s1.4,0.1,1.4,1.5S42.1,43.7,40.8,43.7L40.8,43.7z M40.8,39.4c-1.3,0-1.4-0.1-1.4-1.4s0.1-1.5,1.5-1.5s1.4,0.1,1.4,1.4
		S42.1,39.4,40.8,39.4L40.8,39.4z M42.3,33.7c0,1.3-0.1,1.4-1.4,1.4s-1.4-0.1-1.4-1.4s0.1-1.4,1.5-1.4S42.3,32.3,42.3,33.7
		L42.3,33.7z M40.8,30.8c-1.3,0-1.4-0.1-1.4-1.4s0-1.4,1.3-1.4s1.5,0.1,1.5,1.5S42.1,30.8,40.8,30.8L40.8,30.8z M42.3,24.8
		c0,0.3,0,0.6,0,0.9c0,0.4-0.3,0.8-0.7,0.8c0,0-0.1,0-0.1,0c-0.5,0-0.9,0-1.3,0c-0.4,0-0.7-0.3-0.8-0.7c0,0,0,0,0-0.1
		c0-0.5,0-0.9,0-1.3c0-0.4,0.3-0.7,0.7-0.8c0,0,0.1,0,0.1,0H41l0,0c0.4,0,0.9-0.1,1.1,0.1S42.2,24.5,42.3,24.8L42.3,24.8z
		 M43.1,22.1c-5.9-3.5-11.8-7-17.6-10.6c-0.2-0.2-0.5-0.2-0.7,0c-0.3,0.2-0.7,0.4-1.1,0.7v-0.3c0-1.4,0-1.4,1.3-2
		c0.2-0.1,0.3,0,0.5,0.1l9.6,5.7c3.2,1.9,6.5,3.8,9.7,5.7c0.3,0.1,0.4,0.4,0.4,0.7c0,0.7,0,1.3,0,2c0,0.3-0.1,0.3-0.3,0.3
		c-1.1,0-1.2,0-1.1-1.1C43.7,22.8,43.5,22.3,43.1,22.1L43.1,22.1z M30.2,19.9c0.1,0,0.1,0.1,0.2,0c0.2-0.4,0.5-0.7,0.7-1.1
		c0,0-0.1-0.1-0.1-0.1l-1-0.6c-0.2-0.1-0.2,0-0.2,0.1C29.1,19.2,29.2,19.4,30.2,19.9z M26.9,17.9c1,0.8,1,0.8,1.6-0.3l0.1-0.2
		c0,0,0.1-0.1,0-0.1l-1.1-0.7c-0.1,0-0.2,0-0.2,0.1c-0.2,0.3-0.4,0.6-0.6,0.9C26.7,17.8,26.8,17.8,26.9,17.9z M21.1,39.4H21
		c-0.2,0-0.3,0-0.2,0.2c0,0.1,0,0.3,0,0.4c0,0.8,0,0.8,0.8,0.8h0.2c0.4,0.1,0.5-0.1,0.5-0.4C22.1,39.4,22.1,39.4,21.1,39.4z
		 M28.7,17.3l-1.1-0.7c-0.1,0-0.2,0-0.2,0.1c-0.2,0.3-0.4,0.6-0.6,0.9c-0.1,0.1,0,0.2,0.1,0.2c1,0.8,1,0.8,1.6-0.3l0.1-0.2
		C28.7,17.4,28.7,17.3,28.7,17.3z M31,18.7l-1-0.6c-0.2-0.1-0.2,0-0.2,0.1c-0.7,1-0.6,1.2,0.4,1.7c0.1,0,0.1,0.1,0.2,0
		c0.2-0.4,0.5-0.7,0.7-1.1C31.1,18.8,31.1,18.7,31,18.7z M21.1,39.4H21c-0.2,0-0.3,0-0.2,0.2c0,0.1,0,0.3,0,0.4c0,0.8,0,0.8,0.8,0.8
		h0.2c0.4,0.1,0.5-0.1,0.5-0.4C22.1,39.4,22.1,39.4,21.1,39.4L21.1,39.4z M31,18.7l-1-0.6c-0.2-0.1-0.2,0-0.2,0.1
		c-0.7,1-0.6,1.2,0.4,1.7c0.1,0,0.1,0.1,0.2,0c0.2-0.4,0.5-0.7,0.7-1.1C31.1,18.8,31.1,18.7,31,18.7z M28.6,17.3l-1.1-0.7
		c-0.1,0-0.2,0-0.2,0.1c-0.2,0.3-0.4,0.6-0.6,0.9c-0.1,0.1,0,0.2,0.1,0.2c1,0.8,1,0.8,1.6-0.3l0.1-0.2
		C28.7,17.4,28.7,17.3,28.6,17.3L28.6,17.3z M21.1,39.4H21c-0.2,0-0.3,0-0.2,0.2c0,0.1,0,0.3,0,0.4c0,0.8,0,0.8,0.8,0.8h0.2
		c0.4,0.1,0.5-0.1,0.5-0.4C22.1,39.4,22.1,39.4,21.1,39.4z M28.7,17.3l-1.1-0.7c-0.1,0-0.2,0-0.2,0.1c-0.2,0.3-0.4,0.6-0.6,0.9
		c-0.1,0.1,0,0.2,0.1,0.2c1,0.8,1,0.8,1.6-0.3l0.1-0.2C28.7,17.4,28.7,17.3,28.7,17.3z M31,18.7l-1-0.6c-0.2-0.1-0.2,0-0.2,0.1
		c-0.7,1-0.6,1.2,0.4,1.7c0.1,0,0.1,0.1,0.2,0c0.2-0.4,0.5-0.7,0.7-1.1C31.1,18.8,31.1,18.7,31,18.7z M21.1,39.4H21
		c-0.2,0-0.3,0-0.2,0.2c0,0.1,0,0.3,0,0.4c0,0.8,0,0.8,0.8,0.8h0.2c0.4,0.1,0.5-0.1,0.5-0.4C22.1,39.4,22.1,39.4,21.1,39.4
		L21.1,39.4z M31,18.7l-1-0.6c-0.2-0.1-0.2,0-0.2,0.1c-0.7,1-0.6,1.2,0.4,1.7c0.1,0,0.1,0.1,0.2,0c0.2-0.4,0.5-0.7,0.7-1.1
		C31.1,18.8,31.1,18.7,31,18.7z M28.6,17.3l-1.1-0.7c-0.1,0-0.2,0-0.2,0.1c-0.2,0.3-0.4,0.6-0.6,0.9c-0.1,0.1,0,0.2,0.1,0.2
		c1,0.8,1,0.8,1.6-0.3l0.1-0.2C28.7,17.4,28.7,17.3,28.6,17.3L28.6,17.3z M21.1,39.4H21c-0.2,0-0.3,0-0.2,0.2c0,0.1,0,0.3,0,0.4
		c0,0.8,0,0.8,0.8,0.8h0.2c0.4,0.1,0.5-0.1,0.5-0.4C22.1,39.4,22.1,39.4,21.1,39.4z M28.7,17.3l-1.1-0.7c-0.1,0-0.2,0-0.2,0.1
		c-0.2,0.3-0.4,0.6-0.6,0.9c-0.1,0.1,0,0.2,0.1,0.2c1,0.8,1,0.8,1.6-0.3l0.1-0.2C28.7,17.4,28.7,17.3,28.7,17.3z M31,18.7l-1-0.6
		c-0.2-0.1-0.2,0-0.2,0.1c-0.7,1-0.6,1.2,0.4,1.7c0.1,0,0.1,0.1,0.2,0c0.2-0.4,0.5-0.7,0.7-1.1C31.1,18.8,31.1,18.7,31,18.7z
		 M21.1,39.4H21c-0.2,0-0.3,0-0.2,0.2c0,0.1,0,0.3,0,0.4c0,0.8,0,0.8,0.8,0.8h0.2c0.4,0.1,0.5-0.1,0.5-0.4
		C22.1,39.4,22.1,39.4,21.1,39.4L21.1,39.4z M31,18.7l-1-0.6c-0.2-0.1-0.2,0-0.2,0.1c-0.7,1-0.6,1.2,0.4,1.7c0.1,0,0.1,0.1,0.2,0
		c0.2-0.4,0.5-0.7,0.7-1.1C31.1,18.8,31.1,18.7,31,18.7z M28.6,17.3l-1.1-0.7c-0.1,0-0.2,0-0.2,0.1c-0.2,0.3-0.4,0.6-0.6,0.9
		c-0.1,0.1,0,0.2,0.1,0.2c1,0.8,1,0.8,1.6-0.3l0.1-0.2C28.7,17.4,28.7,17.3,28.6,17.3L28.6,17.3z M21.1,39.4H21
		c-0.2,0-0.3,0-0.2,0.2c0,0.1,0,0.3,0,0.4c0,0.8,0,0.8,0.8,0.8h0.2c0.4,0.1,0.5-0.1,0.5-0.4C22.1,39.4,22.1,39.4,21.1,39.4z
		 M28.7,17.3l-1.1-0.7c-0.1,0-0.2,0-0.2,0.1c-0.2,0.3-0.4,0.6-0.6,0.9c-0.1,0.1,0,0.2,0.1,0.2c1,0.8,1,0.8,1.6-0.3l0.1-0.2
		C28.7,17.4,28.7,17.3,28.7,17.3z M31,18.7l-1-0.6c-0.2-0.1-0.2,0-0.2,0.1c-0.7,1-0.6,1.2,0.4,1.7c0.1,0,0.1,0.1,0.2,0
		c0.2-0.4,0.5-0.7,0.7-1.1C31.1,18.8,31.1,18.7,31,18.7z M21.1,39.4H21c-0.2,0-0.3,0-0.2,0.2c0,0.1,0,0.3,0,0.4c0,0.8,0,0.8,0.8,0.8
		h0.2c0.4,0.1,0.5-0.1,0.5-0.4C22.1,39.4,22.1,39.4,21.1,39.4L21.1,39.4z M31,18.7l-1-0.6c-0.2-0.1-0.2,0-0.2,0.1
		c-0.7,1-0.6,1.2,0.4,1.7c0.1,0,0.1,0.1,0.2,0c0.2-0.4,0.5-0.7,0.7-1.1C31.1,18.8,31.1,18.7,31,18.7z M28.6,17.3l-1.1-0.7
		c-0.1,0-0.2,0-0.2,0.1c-0.2,0.3-0.4,0.6-0.6,0.9c-0.1,0.1,0,0.2,0.1,0.2c1,0.8,1,0.8,1.6-0.3l0.1-0.2
		C28.7,17.4,28.7,17.3,28.6,17.3L28.6,17.3z M21.1,39.4H21c-0.2,0-0.3,0-0.2,0.2c0,0.1,0,0.3,0,0.4c0,0.8,0,0.8,0.8,0.8h0.2
		c0.4,0.1,0.5-0.1,0.5-0.4C22.1,39.4,22.1,39.4,21.1,39.4z M28.7,17.3l-1.1-0.7c-0.1,0-0.2,0-0.2,0.1c-0.2,0.3-0.4,0.6-0.6,0.9
		c-0.1,0.1,0,0.2,0.1,0.2c1,0.8,1,0.8,1.6-0.3l0.1-0.2C28.7,17.4,28.7,17.3,28.7,17.3z M31,18.7l-1-0.6c-0.2-0.1-0.2,0-0.2,0.1
		c-0.7,1-0.6,1.2,0.4,1.7c0.1,0,0.1,0.1,0.2,0c0.2-0.4,0.5-0.7,0.7-1.1C31.1,18.8,31.1,18.7,31,18.7z M21.1,39.4H21
		c-0.2,0-0.3,0-0.2,0.2c0,0.1,0,0.3,0,0.4c0,0.8,0,0.8,0.8,0.8h0.2c0.4,0.1,0.5-0.1,0.5-0.4C22.1,39.4,22.1,39.4,21.1,39.4
		L21.1,39.4z M31,18.7l-1-0.6c-0.2-0.1-0.2,0-0.2,0.1c-0.7,1-0.6,1.2,0.4,1.7c0.1,0,0.1,0.1,0.2,0c0.2-0.4,0.5-0.7,0.7-1.1
		C31.1,18.8,31.1,18.7,31,18.7z M28.6,17.3l-1.1-0.7c-0.1,0-0.2,0-0.2,0.1c-0.2,0.3-0.4,0.6-0.6,0.9c-0.1,0.1,0,0.2,0.1,0.2
		c1,0.8,1,0.8,1.6-0.3l0.1-0.2C28.7,17.4,28.7,17.3,28.6,17.3L28.6,17.3z M21.1,39.4H21c-0.2,0-0.3,0-0.2,0.2c0,0.1,0,0.3,0,0.4
		c0,0.8,0,0.8,0.8,0.8h0.2c0.4,0.1,0.5-0.1,0.5-0.4C22.1,39.4,22.1,39.4,21.1,39.4z M28.7,17.3l-1.1-0.7c-0.1,0-0.2,0-0.2,0.1
		c-0.2,0.3-0.4,0.6-0.6,0.9c-0.1,0.1,0,0.2,0.1,0.2c1,0.8,1,0.8,1.6-0.3l0.1-0.2C28.7,17.4,28.7,17.3,28.7,17.3z M31,18.7l-1-0.6
		c-0.2-0.1-0.2,0-0.2,0.1c-0.7,1-0.6,1.2,0.4,1.7c0.1,0,0.1,0.1,0.2,0c0.2-0.4,0.5-0.7,0.7-1.1C31.1,18.8,31.1,18.7,31,18.7z
		 M21.1,39.4H21c-0.2,0-0.3,0-0.2,0.2c0,0.1,0,0.3,0,0.4c0,0.8,0,0.8,0.8,0.8h0.2c0.4,0.1,0.5-0.1,0.5-0.4
		C22.1,39.4,22.1,39.4,21.1,39.4L21.1,39.4z M31,18.7l-1-0.6c-0.2-0.1-0.2,0-0.2,0.1c-0.7,1-0.6,1.2,0.4,1.7c0.1,0,0.1,0.1,0.2,0
		c0.2-0.4,0.5-0.7,0.7-1.1C31.1,18.8,31.1,18.7,31,18.7z M28.6,17.3l-1.1-0.7c-0.1,0-0.2,0-0.2,0.1c-0.2,0.3-0.4,0.6-0.6,0.9
		c-0.1,0.1,0,0.2,0.1,0.2c1,0.8,1,0.8,1.6-0.3l0.1-0.2C28.7,17.4,28.7,17.3,28.6,17.3L28.6,17.3z M21.1,39.4H21
		c-0.2,0-0.3,0-0.2,0.2c0,0.1,0,0.3,0,0.4c0,0.8,0,0.8,0.8,0.8h0.2c0.4,0.1,0.5-0.1,0.5-0.4C22.1,39.4,22.1,39.4,21.1,39.4z
		 M28.7,17.3l-1.1-0.7c-0.1,0-0.2,0-0.2,0.1c-0.2,0.3-0.4,0.6-0.6,0.9c-0.1,0.1,0,0.2,0.1,0.2c1,0.8,1,0.8,1.6-0.3l0.1-0.2
		C28.7,17.4,28.7,17.3,28.7,17.3z M31,18.7l-1-0.6c-0.2-0.1-0.2,0-0.2,0.1c-0.7,1-0.6,1.2,0.4,1.7c0.1,0,0.1,0.1,0.2,0
		c0.2-0.4,0.5-0.7,0.7-1.1C31.1,18.8,31.1,18.7,31,18.7z M21.1,39.4H21c-0.2,0-0.3,0-0.2,0.2c0,0.1,0,0.3,0,0.4c0,0.8,0,0.8,0.8,0.8
		h0.2c0.4,0.1,0.5-0.1,0.5-0.4C22.1,39.4,22.1,39.4,21.1,39.4L21.1,39.4z M31,18.7l-1-0.6c-0.2-0.1-0.2,0-0.2,0.1
		c-0.7,1-0.6,1.2,0.4,1.7c0.1,0,0.1,0.1,0.2,0c0.2-0.4,0.5-0.7,0.7-1.1C31.1,18.8,31.1,18.7,31,18.7z M28.6,17.3l-1.1-0.7
		c-0.1,0-0.2,0-0.2,0.1c-0.2,0.3-0.4,0.6-0.6,0.9c-0.1,0.1,0,0.2,0.1,0.2c1,0.8,1,0.8,1.6-0.3l0.1-0.2
		C28.7,17.4,28.7,17.3,28.6,17.3L28.6,17.3z M21.1,39.4H21c-0.2,0-0.3,0-0.2,0.2c0,0.1,0,0.3,0,0.4c0,0.8,0,0.8,0.8,0.8h0.2
		c0.4,0.1,0.5-0.1,0.5-0.4C22.1,39.4,22.1,39.4,21.1,39.4z M28.7,17.3l-1.1-0.7c-0.1,0-0.2,0-0.2,0.1c-0.2,0.3-0.4,0.6-0.6,0.9
		c-0.1,0.1,0,0.2,0.1,0.2c1,0.8,1,0.8,1.6-0.3l0.1-0.2C28.7,17.4,28.7,17.3,28.7,17.3z M31,18.7l-1-0.6c-0.2-0.1-0.2,0-0.2,0.1
		c-0.7,1-0.6,1.2,0.4,1.7c0.1,0,0.1,0.1,0.2,0c0.2-0.4,0.5-0.7,0.7-1.1C31.1,18.8,31.1,18.7,31,18.7z M21.1,39.4H21
		c-0.2,0-0.3,0-0.2,0.2c0,0.1,0,0.3,0,0.4c0,0.8,0,0.8,0.8,0.8h0.2c0.4,0.1,0.5-0.1,0.5-0.4C22.1,39.4,22.1,39.4,21.1,39.4
		L21.1,39.4z M31,18.7l-1-0.6c-0.2-0.1-0.2,0-0.2,0.1c-0.7,1-0.6,1.2,0.4,1.7c0.1,0,0.1,0.1,0.2,0c0.2-0.4,0.5-0.7,0.7-1.1
		C31.1,18.8,31.1,18.7,31,18.7z M28.6,17.3l-1.1-0.7c-0.1,0-0.2,0-0.2,0.1c-0.2,0.3-0.4,0.6-0.6,0.9c-0.1,0.1,0,0.2,0.1,0.2
		c1,0.8,1,0.8,1.6-0.3l0.1-0.2C28.7,17.4,28.7,17.3,28.6,17.3L28.6,17.3z M21.1,39.4H21c-0.2,0-0.3,0-0.2,0.2c0,0.1,0,0.3,0,0.4
		c0,0.8,0,0.8,0.8,0.8h0.2c0.4,0.1,0.5-0.1,0.5-0.4C22.1,39.4,22.1,39.4,21.1,39.4z M21.1,39.4H21c-0.2,0-0.3,0-0.2,0.2
		c0,0.1,0,0.3,0,0.4c0,0.8,0,0.8,0.8,0.8h0.2c0.4,0.1,0.5-0.1,0.5-0.4C22.1,39.4,22.1,39.4,21.1,39.4z M21.1,39.4H21
		c-0.2,0-0.3,0-0.2,0.2c0,0.1,0,0.3,0,0.4c0,0.8,0,0.8,0.8,0.8h0.2c0.4,0.1,0.5-0.1,0.5-0.4C22.1,39.4,22.1,39.4,21.1,39.4z
		 M21.1,39.4H21c-0.2,0-0.3,0-0.2,0.2c0,0.1,0,0.3,0,0.4c0,0.8,0,0.8,0.8,0.8h0.2c0.4,0.1,0.5-0.1,0.5-0.4
		C22.1,39.4,22.1,39.4,21.1,39.4z M21.1,39.4H21c-0.2,0-0.3,0-0.2,0.2c0,0.1,0,0.3,0,0.4c0,0.8,0,0.8,0.8,0.8h0.2
		c0.4,0.1,0.5-0.1,0.5-0.4C22.1,39.4,22.1,39.4,21.1,39.4z M21.1,39.4H21c-0.2,0-0.3,0-0.2,0.2c0,0.1,0,0.3,0,0.4
		c0,0.8,0,0.8,0.8,0.8h0.2c0.4,0.1,0.5-0.1,0.5-0.4C22.1,39.4,22.1,39.4,21.1,39.4z M21.1,39.4H21c-0.2,0-0.3,0-0.2,0.2
		c0,0.1,0,0.3,0,0.4c0,0.8,0,0.8,0.8,0.8h0.2c0.4,0.1,0.5-0.1,0.5-0.4C22.1,39.4,22.1,39.4,21.1,39.4z M21.1,39.4H21
		c-0.2,0-0.3,0-0.2,0.2c0,0.1,0,0.3,0,0.4c0,0.8,0,0.8,0.8,0.8h0.2c0.4,0.1,0.5-0.1,0.5-0.4C22.1,39.4,22.1,39.4,21.1,39.4z
		 M21.1,39.4H21c-0.2,0-0.3,0-0.2,0.2c0,0.1,0,0.3,0,0.4c0,0.8,0,0.8,0.8,0.8h0.2c0.4,0.1,0.5-0.1,0.5-0.4
		C22.1,39.4,22.1,39.4,21.1,39.4z M21.1,39.4H21c-0.2,0-0.3,0-0.2,0.2c0,0.1,0,0.3,0,0.4c0,0.8,0,0.8,0.8,0.8h0.2
		c0.4,0.1,0.5-0.1,0.5-0.4C22.1,39.4,22.1,39.4,21.1,39.4z M21.1,39.4H21c-0.2,0-0.3,0-0.2,0.2c0,0.1,0,0.3,0,0.4
		c0,0.8,0,0.8,0.8,0.8h0.2c0.4,0.1,0.5-0.1,0.5-0.4C22.1,39.4,22.1,39.4,21.1,39.4z"/>
	<path class="st0" d="M33.6,48.7v0.7h-1.4v-0.7c0-0.7,0-0.7,0.7-0.7S33.6,48,33.6,48.7z"/>
	<path class="st0" d="M22.1,40.4c0,0.4-0.1,0.5-0.5,0.4h-0.2c-0.8,0-0.8,0-0.8-0.8c0-0.1,0-0.3,0-0.4c0-0.2,0.1-0.3,0.2-0.2
		c0.1,0,0.1,0,0.2,0C22.1,39.4,22.1,39.4,22.1,40.4z"/>
	<path class="st0" d="M28.7,17.4l-0.1,0.2c-0.6,1.1-0.7,1.1-1.6,0.3c-0.1-0.1-0.2-0.1-0.1-0.2c0.2-0.3,0.4-0.6,0.6-0.9
		c0-0.1,0.1-0.1,0.2-0.1l1.1,0.7C28.7,17.3,28.7,17.4,28.7,17.4z"/>
	<path class="st0" d="M31.2,18.8c-0.2,0.4-0.5,0.8-0.7,1.1c-0.1,0.1-0.1,0-0.2,0c-1.1-0.5-1.1-0.7-0.4-1.7c0.1-0.1,0.1-0.2,0.2-0.1
		l1,0.6C31.1,18.7,31.1,18.8,31.2,18.8z"/>
	<path class="st0" d="M19.3,13.7c0,0.1,0,0.2,0,0.3c0,0.3-0.1,0.4-0.4,0.4c-1,0-1,0-1-1c0-0.4,0.1-0.5,0.5-0.5h0.2
		C19.3,12.9,19.3,12.9,19.3,13.7z"/>
	<path class="st0" d="M22.1,40.4c0,0.4-0.1,0.5-0.5,0.4h-0.2c-0.8,0-0.8,0-0.8-0.8c0-0.1,0-0.3,0-0.4c0-0.2,0.1-0.3,0.2-0.2
		c0.1,0,0.1,0,0.2,0C22.1,39.4,22.1,39.4,22.1,40.4z"/>
	<path class="st0" d="M31.2,18.8c-0.2,0.4-0.5,0.8-0.7,1.1c-0.1,0.1-0.1,0-0.2,0c-1.1-0.5-1.1-0.7-0.4-1.7c0.1-0.1,0.1-0.2,0.2-0.1
		l1,0.6C31.1,18.7,31.1,18.8,31.2,18.8z"/>
	<path class="st0" d="M28.7,17.4l-0.1,0.2c-0.6,1.1-0.7,1.1-1.6,0.3c-0.1-0.1-0.2-0.1-0.1-0.2c0.2-0.3,0.4-0.6,0.6-0.9
		c0-0.1,0.1-0.1,0.2-0.1l1.1,0.7C28.7,17.3,28.7,17.4,28.7,17.4z"/>
</g>
</svg>
