<?xml version="1.0" encoding="utf-8"?>
<!-- Generator: Adobe Illustrator 25.4.1, SVG Export Plug-In . SVG Version: 6.00 Build 0)  -->
<svg version="1.1" id="Layer_1" xmlns="http://www.w3.org/2000/svg" xmlns:xlink="http://www.w3.org/1999/xlink" x="0px" y="0px"
	 viewBox="0 0 50 50" style="enable-background:new 0 0 50 50;" xml:space="preserve">
<style type="text/css">
	.st0{fill:#FFFFFF;}
</style>
<g>
	<path class="st0" d="M46.4,21.6v-2.4c0-0.5,0-1,0.7-1s0.8,0.4,0.8,0.9c0.9,6.4-1.2,12.8-5.7,17.3c-3.7,4-8.9,6.4-14.4,6.7
		c-0.4,0.1-0.9,0-1.3-0.1c-2.4-1.2-4.5-2.8-5.7-5.3c-0.5-1.3-0.4-2.7,0.1-3.9c0.3-0.7,0.5-1.5,0.7-2.3c0.4-1.7-0.4-3.4-1.8-4.2
		c-1.5-0.9-1.6-2.5-0.6-4.1c0.7-1.1,1.6-2.1,1.6-3.5c0.1-1-0.6-2-1.6-2.1c-0.2,0-0.4,0-0.7,0c-0.6,0.1-1.2,0.3-1,1.2
		c0.5,2.5-0.7,4.4-2.3,6.1c-0.6,0.6-1.3,1.1-2,1.6c-0.8,0.7-2.1,0.6-2.8-0.2c-0.2-0.2-0.3-0.4-0.4-0.6c-0.7-1.3-0.8-2.7-0.3-4.1
		c0.4-0.9,0.1-1.2-0.8-1.3c-0.2,0-0.4-0.1-0.6-0.1C6.9,20,6.9,20,6.8,21.5c-0.2,8.8,5.6,16.7,14,19.2c0.6,0.2,1.9,0.1,1.5,1.2
		s-1.3,0.4-2,0.2c-8.6-2.8-13.5-8.7-15-17.6c-0.3-1.7-0.3-3.3,0-5c0.1-0.5,0.2-0.9,0.8-0.9c1.6-0.2,3.1-0.1,4.6,0.4
		c1.1,0.5,1.4,1.1,0.7,2.1c-0.6,0.9-0.7,2.1-0.3,3.1c0.3,1,0.7,1.1,1.6,0.5c1.3-0.9,2.4-2.2,3-3.7c0.4-0.8,0.5-1.7,0.3-2.5
		c-0.3-0.7,0-1.5,0.6-1.9c1.2-0.9,2.9-1.1,4.2-0.4c1.2,0.6,1.9,1.9,1.7,3.2c0,1.3-0.5,2.6-1.3,3.5c-0.4,0.5-0.7,1-0.9,1.6
		c-0.2,0.4,0,0.9,0.4,1.2c3.1,2,3.2,5,2,7.9c-0.9,1.8-0.5,3.9,1,5.3c0.8,0.8,1.7,1.6,2.7,2.2c0.5,0.3,1.1,0.4,1.7,0.3
		C38.5,40.8,46.6,32.1,46.4,21.6z"/>
	<path class="st0" d="M26.5,2C18,2,10.4,7.5,7.8,15.6l-0.1,0.4c-0.2,0.5-0.4,0.9-1,0.8S6,15.9,6.2,15.4c0.9-3.1,2.6-6,4.9-8.3
		C16.7,1.6,23.2-0.7,31,0.8c1,0.2,1.7,0.5,1.5,1.7c0,0.4,0.1,0.9,0.3,1.2c1.1,1.6,0.6,3.3,0.2,5c-0.1,0.9-0.9,1.5-1.8,1.6
		c-0.8,0.1-1.5,0.4-2.1,0.9c-1.1,0.8-1.2,1.5-0.5,2.7c0.5,0.9,1,1.9,1.6,2.8c0.4,0.6,0.8,0.7,1.1,0c0.5-0.9,1-1.7,1.4-2.6
		c1.3-2.8,3.4-1.9,4.5-0.2c0.4,0.7,0.8,1.4,1.2,2.1c0.3,0.6,0.9,1,1.5,0.9c1.5-0.1,2.9-0.4,4.4-0.7c1-0.2,1.1-0.6,0.8-1.5
		c-1.9-4.8-5.6-8.7-10.2-11c-0.2-0.1-0.4-0.2-0.7-0.3c-0.5-0.2-0.8-0.6-0.5-1.2S34.5,1.8,35,2c2,0.8,3.9,2,5.6,3.5
		c3.1,2.6,5.3,6.1,6.5,9.9c0.3,1.1,0.1,1.6-1,2c-1.8,0.6-3.7,0.9-5.5,1c-1.6,0.3-3.1-0.6-3.7-2.1c-0.2-0.6-0.6-1.1-0.9-1.7
		c-0.6-0.9-1-0.8-1.6,0.1c-0.6,1.1-1.2,2.2-1.9,3.2c-1.1,1.4-2.2,1.4-3.2,0c-0.9-1.3-1.8-2.8-2.5-4.2c-0.6-1.3,0.1-2.4,1-3.3
		c0.8-0.8,1.8-1.3,2.9-1.6c0.4-0.1,0.8-0.2,0.9-0.7c0.2-1.3,0.1-2.5-0.2-3.8C30.9,2,29.3,2,27.6,2C27.2,2,26.9,2,26.5,2z"/>
	<path class="st0" d="M2,23.4c0-0.5,0-1,0-1.5S2.2,21,2.7,21s0.8,0.4,0.8,1c0,1.8,0.2,3.6,0.6,5.4c3.2,12.4,15.9,19.9,28.3,16.7
		c2.7-0.7,5.2-1.8,7.4-3.4l0.5-0.3c0.4-0.2,0.8-0.3,1.2,0.2s0,0.8-0.4,1.1c-2.6,1.9-5.5,3.2-8.5,4c-1.4,0.4-2.8,0.6-4.2,0.6
		c-0.8,0-1.2,0.3-1.1,1.2c0,0.5,0,1,0,1.5c0,0.3-0.2,0.7-0.6,0.7c0,0-0.1,0-0.1,0C26.4,49.7,26,49.4,26,49c0,0,0-0.1,0-0.1
		c0-0.1,0-0.2,0-0.4c-0.1-2.2-0.1-2.2-2.3-2.4C12.3,45.1,2.4,34.9,2,23.4z"/>
	<path class="st0" d="M40.5,22.1c-2.2-0.7-4.7-0.2-6.5,1.3c-0.8,0.6-1.3,1.4-2.3,0.9c-1.1,0-1.8,0.2-2.1,1.1c-0.3,0.8,0.2,1.7,1,2
		c0,0,0,0,0,0c1.2,0.6,2.4,1.2,3.5,2c1.7,1,3.9,0.5,4.9-1.2c0,0,0,0,0-0.1c0.6-1.1,1.3-2,2.1-2.9C42.5,24.1,42.2,22.5,40.5,22.1z
		 M40,24.5c-0.9,0.9-1.7,2-2.3,3.1c-0.5,0.9-1.6,1.2-2.5,0.7c0,0,0,0,0,0c-1.2-0.6-2.3-1.3-3.4-2.1c1.1,0.2,2.3-0.3,2.9-1.3
		c1.4-1.5,3.2-1.5,5-1.4C40.5,23.5,40.5,24,40,24.5z"/>
	<path class="st0" d="M27.2,33.8c-1.2,0-2.8,1.8-2.8,3.1c0,1.1,1,1.8,2.4,1.9s2.5-0.8,2.5-2C29.4,35.3,28.3,33.8,27.2,33.8z
		 M26.9,37.2c-0.4,0-0.9,0-0.8-0.6c0.1-0.5,0.5-0.9,1-1.1c0.4,0.2,0.7,0.6,0.7,1C27.8,37.1,27.4,37.2,26.9,37.2z"/>
</g>
</svg>
