<svg id="Layer_1" data-name="Layer 1" xmlns="http://www.w3.org/2000/svg" viewBox="0 0 20 20">
  <defs>
    <style>
      .cls-1 {
        fill: #fff;
      }
    </style>
  </defs>
  <g>
    <path class="cls-1" d="M18.44,8.67v-1c0-.19,0-.39.27-.4s.3.15.33.36a8.21,8.21,0,0,1-2.25,6.85,8.22,8.22,0,0,1-5.68,2.63,1.08,1.08,0,0,1-.51,0A4.58,4.58,0,0,1,8.36,15a2.05,2.05,0,0,1,.05-1.54,4.06,4.06,0,0,0,.27-.9A1.54,1.54,0,0,0,8,10.89a1.09,1.09,0,0,1-.24-1.63,2.55,2.55,0,0,0,.64-1.39.74.74,0,0,0-.9-.82c-.26,0-.47.13-.4.46a2.67,2.67,0,0,1-.92,2.42,4.16,4.16,0,0,1-.77.63.79.79,0,0,1-1.27-.33A1.93,1.93,0,0,1,4,8.62c.14-.37,0-.49-.32-.51l-.24,0c-.56-.06-.58,0-.6.54a7.78,7.78,0,0,0,5.52,7.58c.26.07.74,0,.61.48s-.52.17-.78.08a8.17,8.17,0,0,1-5.9-6.93,5.73,5.73,0,0,1,0-2c0-.2.1-.35.31-.36a4.26,4.26,0,0,1,1.84.17c.45.19.55.45.29.85a1.45,1.45,0,0,0-.14,1.23c.11.39.29.45.62.21A3.28,3.28,0,0,0,6.37,8.5a1.5,1.5,0,0,0,.06-1,.65.65,0,0,1,.23-.77A1.64,1.64,0,0,1,8.34,6.6,1.19,1.19,0,0,1,9,7.86a2.24,2.24,0,0,1-.52,1.4,1.58,1.58,0,0,0-.34.62.37.37,0,0,0,.14.46,2.3,2.3,0,0,1,.78,3.1,1.77,1.77,0,0,0,.42,2.08,7.39,7.39,0,0,0,1.06.88,1,1,0,0,0,.69.12A7.73,7.73,0,0,0,18.44,8.67Z"/>
    <path class="cls-1" d="M10.6.92A7.74,7.74,0,0,0,3.2,6.28s0,.09,0,.14-.16.37-.4.3-.25-.3-.18-.51A8,8,0,0,1,4.52,2.93,8.32,8.32,0,0,1,12.37.46c.38.07.66.18.58.66a.83.83,0,0,0,.14.5,2.27,2.27,0,0,1,.08,2,.73.73,0,0,1-.7.61,1.56,1.56,0,0,0-.81.38c-.43.33-.47.58-.2,1l.62,1.12c.14.25.3.27.45,0s.4-.68.57-1c.52-1.09,1.33-.75,1.79-.1a8.36,8.36,0,0,1,.46.83.58.58,0,0,0,.61.36,14.63,14.63,0,0,0,1.74-.27c.38-.08.43-.26.29-.6a8.11,8.11,0,0,0-4-4.34,2.06,2.06,0,0,1-.26-.12.32.32,0,0,1-.2-.46c.11-.2.28-.17.45-.1a8.16,8.16,0,0,1,2.22,1.37,8.42,8.42,0,0,1,2.57,3.92c.14.43,0,.65-.39.79a9,9,0,0,1-2.19.41,1.32,1.32,0,0,1-1.45-.83,3.82,3.82,0,0,0-.36-.66c-.25-.35-.41-.33-.63,0A12.36,12.36,0,0,1,13,7.21c-.42.54-.89.57-1.27,0a13,13,0,0,1-1-1.68,1.12,1.12,0,0,1,.42-1.31,2.31,2.31,0,0,1,1.16-.62c.17,0,.31-.08.33-.27a4.36,4.36,0,0,0-.06-1.48C12.33.93,11.71.94,11,.92,10.89.91,10.75.92,10.6.92Z"/>
    <path class="cls-1" d="M.9,9.35V8.78c0-.19.07-.36.29-.36s.33.15.33.37a8.42,8.42,0,0,0,.25,2.12,9.16,9.16,0,0,0,14.12,5.28l.2-.13c.17-.1.34-.12.46.07s0,.33-.14.44A9.58,9.58,0,0,1,13,18.16a7.56,7.56,0,0,1-1.64.25c-.32,0-.46.14-.44.46a3.62,3.62,0,0,1,0,.57.26.26,0,0,1-.26.28.28.28,0,0,1-.33-.26.76.76,0,0,0,0-.15c0-.86,0-.85-.89-.93A9.8,9.8,0,0,1,.9,9.35Z"/>
    <path class="cls-1" d="M16.1,8.85a2.75,2.75,0,0,0-2.54.53c-.3.25-.53.56-.9.37-.42,0-.72.08-.82.44a.62.62,0,0,0,.41.8,9.72,9.72,0,0,1,1.4.8,1.41,1.41,0,0,0,1.94-.49,4.7,4.7,0,0,1,.83-1.14C16.91,9.63,16.79,9,16.1,8.85Zm-.18.94A5.38,5.38,0,0,0,15,11a.74.74,0,0,1-1,.27,11.41,11.41,0,0,1-1.32-.81,1.17,1.17,0,0,0,1.15-.5,2.29,2.29,0,0,1,2-.57C16.1,9.41,16.11,9.61,15.92,9.79Z"/>
    <path class="cls-1" d="M10.88,13.47a1.42,1.42,0,0,0-1.1,1.21c0,.43.39.73.94.74s1-.29,1-.79S11.29,13.46,10.88,13.47Zm-.13,1.35c-.16,0-.36,0-.32-.25a.57.57,0,0,1,.39-.43.42.42,0,0,1,.28.4C11.12,14.78,10.93,14.82,10.75,14.82Z"/>
  </g>
</svg>
