<svg id="Layer_1" data-name="Layer 1" xmlns="http://www.w3.org/2000/svg" viewBox="0 0 20 20">
  <g>
    <path d="M16.83,3.39c0-.6-.2-.8-.79-.81-.78,0-1.56,0-2.34,0-.32,0-.39.12-.38.4s0,.72,0,1.08A1.71,1.71,0,0,1,11.47,5.9h-3A1.69,1.69,0,0,1,6.68,4.16a9.73,9.73,0,0,1,0-1.08c0-.37-.09-.52-.49-.5-.71,0-1.43,0-2.15,0s-.88.16-.88.9v7.82h0q0,3.93,0,7.86c0,.71.11.82.83.82,1.15,0,2.31,0,3.46,0,.33,0,.42-.09.41-.41,0-.85,0-1.7,0-2.54A1.06,1.06,0,0,1,9,15.91h1.9a1.09,1.09,0,0,1,1.23,1.24c0,.83,0,1.66,0,2.49,0,.29.07.36.35.36,1.17,0,2.34,0,3.51,0,.71,0,.84-.12.85-.82ZM5.42,9.94c.77,0,.78,0,.78.73s0,.78-.76.78-.76-.1-.77-.76S4.74,9.94,5.42,9.94Zm-.75-2.3c0-.66.11-.77.75-.77s.78,0,.78.76,0,.78-.74.78S4.67,8.32,4.67,7.64Zm.85,5.29c.64,0,.69.07.68.8s0,.75-.83.75c-.6,0-.7-.13-.7-.83S4.78,12.92,5.52,12.93Zm-.09,4.58c-.65,0-.76-.12-.75-.77s.11-.82.77-.82.76.08.75.81S6.15,17.51,5.43,17.51Zm0-12.09c-.67,0-.78-.1-.78-.74s.09-.82.75-.82.77.05.77.76S6.16,5.41,5.46,5.42Zm3.8,8.34c0,.66-.07.72-.79.71s-.74,0-.74-.84c0-.64.08-.7.81-.7S9.27,13,9.26,13.76Zm-.83-2.31c-.64,0-.7-.08-.7-.81s0-.71.78-.7.76,0,.75.73S9.2,11.45,8.43,11.45Zm.14-3c-.79,0-.84,0-.84-.75s.06-.79.76-.79.77.07.77.78S9.19,8.41,8.57,8.41Zm2.91-1.54c.72,0,.79.06.79.72s0,.82-.77.82-.77-.07-.78-.73S10.81,6.87,11.48,6.87Zm.06,3.07c.72,0,.73,0,.73.79s-.08.72-.82.72-.73-.1-.73-.79S10.78,9.93,11.54,9.94Zm-.06,4.54c-.69,0-.75-.06-.76-.74s.08-.81.81-.81.74.06.74.75S12.24,14.48,11.48,14.48Zm2.31-9.91c0-.63.09-.72.73-.71s.8.08.79.77-.07.79-.81.79S13.79,5.34,13.79,4.57Zm1.52,3.06c0,.72-.05.78-.76.78s-.76-.05-.76-.78.06-.76.78-.76S15.31,7,15.31,7.63Zm-.85,2.31c.83,0,.86,0,.85.73s-.07.78-.77.78-.75-.07-.75-.75S13.83,9.93,14.46,9.94Zm.1,7.57c-.71,0-.77-.07-.77-.84s.09-.75.77-.75.76.11.75.82S15.22,17.51,14.56,17.51Zm0-3c-.68,0-.73-.05-.74-.7s0-.84.74-.85.78.07.79.78S15.25,14.47,14.53,14.48Z"/>
    <path d="M12.59,1.06a.94.94,0,0,0-1-1C10.51,0,9.45,0,8.4,0a1,1,0,0,0-1,1.07c0,.51,0,1,0,1.51s0,1,0,1.57a.94.94,0,0,0,1,1.06c1.06,0,2.12,0,3.17,0a1,1,0,0,0,1-1C12.61,3.15,12.61,2.1,12.59,1.06Zm-1.3,3.36c-.29,0-.43-.14-.45-.45-.05-.9-.06-.9-1-.9-.71,0-.72,0-.71.73,0,.33,0,.62-.47.61s-.46-.31-.45-.63,0-.78,0-1.17,0-.88,0-1.32.16-.46.48-.46.43.14.44.45c0,.89,0,.89.93.9h.1c.67,0,.67,0,.67-.68,0-.37,0-.7.51-.66.28,0,.41.14.41.43,0,.89,0,1.78,0,2.68C11.77,4.29,11.61,4.42,11.29,4.42Z"/>
  </g>
</svg>
