<svg id="Layer_1" data-name="Layer 1" xmlns="http://www.w3.org/2000/svg" viewBox="0 0 20 20">
  <g>
    <path d="M8.21,5A.3.3,0,0,1,8,4.45c.28-.25.2-.4-.08-.59A.87.87,0,0,1,8,2.39a.28.28,0,0,1,.39,0c.11.13.15.29,0,.39-.36.32-.16.52.1.77a.79.79,0,0,1-.13,1.3A.89.89,0,0,1,8.21,5Z"/>
    <path d="M12.5,2.64s0,.06,0,.07c-.49.47,0,.74.2,1.08a.76.76,0,0,1-.29,1.1.33.33,0,0,1-.47,0A.27.27,0,0,1,12,4.42c.3-.24.15-.38-.08-.55A.84.84,0,0,1,12,2.41a.32.32,0,0,1,.35,0A.33.33,0,0,1,12.5,2.64Z"/>
    <path d="M8.81,11a.29.29,0,0,1-.34.29c-.21,0-.3-.15-.29-.35a.27.27,0,0,1,.3-.29C8.69,10.7,8.79,10.82,8.81,11Z"/>
    <path d="M10.47,11.05a.3.3,0,0,1-.32.28.29.29,0,0,1-.3-.34.28.28,0,0,1,.31-.29C10.38,10.71,10.46,10.85,10.47,11.05Z"/>
    <path d="M12.17,11a.31.31,0,0,1-.37.29.32.32,0,0,1,0-.63C12.06,10.71,12.14,10.86,12.17,11Z"/>
    <path d="M18.3,12.06c-.69,0-1.38,0-2.07,0-.29,0-.4-.1-.39-.39s0-.61,0-.92a1.32,1.32,0,0,0-1.28-1.35,4.42,4.42,0,0,0-.63,0c-.33,0-.45-.1-.44-.43,0-.65,0-1.29,0-1.93s-.29-1-1-1h-.77a.8.8,0,0,0-.89.9c0,.5,0,1,0,1.49,0,1.13.24.95-1,1-.31,0-.38-.11-.38-.39,0-.71,0-1.41,0-2.12A.8.8,0,0,0,8.64,6c-.32,0-.64,0-1,0a.78.78,0,0,0-.84.85c0,.49,0,1,0,1.49,0,1,0,1-1,1A1.31,1.31,0,0,0,4.5,10.81a3.86,3.86,0,0,0,0,.68c.07.47-.15.56-.58.56-1.13,0-2.27,0-3.41,0-.25,0-.41.05-.36.35a8,8,0,0,0,.72,2.35l.27.57A3.21,3.21,0,0,0,2,16.45l.21.19a3.57,3.57,0,0,0,2.52,1c1.72,0,3.43,0,5.15,0h6c.19,0,.41.09.43-.28.06-1.53.5-2,2-2a1.63,1.63,0,0,0,1.59-1.61A1.59,1.59,0,0,0,18.3,12.06ZM11.86,6.64c1.21,0,1-.13,1,.94V8.63c0,.8.13.75-.74.75-.66,0-.66,0-.66-.66s0-1.12,0-1.68C11.46,6.75,11.57,6.64,11.86,6.64ZM7.46,7c0-.22.11-.33.33-.31h0c1.21,0,1-.12,1,1v.87c0,.9-.28,1.11-1.18.89a.24.24,0,0,1-.22-.26C7.45,8.4,7.45,7.68,7.46,7ZM5.12,11.45c0-.14,0-.34.06-.53a1.06,1.06,0,0,1,1-.94h8c.85,0,1.07.21,1,1,0,1.11.2,1-1,1-2.84,0-5.68,0-8.51,0C5.27,12.05,5.08,11.93,5.12,11.45Zm13.32,3.2a4.2,4.2,0,0,1-.62.07,2.27,2.27,0,0,0-2.22,1.91c-.07.32-.19.42-.51.42H4.74a3.19,3.19,0,0,1-2-.68c-.08-.07-.23-.12-.2-.25S2.8,16,2.91,16H13.45c.2,0,.35-.09.36-.31s-.16-.3-.35-.32a2.38,2.38,0,0,0-.38,0c-3.56,0-7.13,0-10.69,0a.88.88,0,0,1-.27-.06,1.31,1.31,0,0,1-.64-.61h0a.19.19,0,0,1,.08-.26,1.09,1.09,0,0,1,.51-.1H12.13a.3.3,0,0,0,.33-.33c0-.22-.12-.32-.32-.33l-.43,0H2.13c-1.23,0-1,.16-1.26-1h0l3.51,0H17.9a2.52,2.52,0,0,1,.62,0,1,1,0,0,1,.72,1A1,1,0,0,1,18.44,14.65Z"/>
    <path d="M8.81,11a.29.29,0,0,1-.34.29c-.21,0-.3-.15-.29-.35a.27.27,0,0,1,.3-.29C8.69,10.7,8.79,10.82,8.81,11Z"/>
    <path d="M12.17,11a.31.31,0,0,1-.37.29.32.32,0,0,1,0-.63C12.06,10.71,12.14,10.86,12.17,11Z"/>
    <path d="M10.47,11.05a.3.3,0,0,1-.32.28.29.29,0,0,1-.3-.34.28.28,0,0,1,.31-.29C10.38,10.71,10.46,10.85,10.47,11.05Z"/>
  </g>
</svg>
