<svg id="Layer_1" data-name="Layer 1" xmlns="http://www.w3.org/2000/svg" viewBox="0 0 100 50">
  <defs>
    <style>
      .cls-1 {
        font-size: 17.77px;
        fill: red;
        font-family: NexaBold, Nexa Bold;
      }

      .cls-2 {
        letter-spacing: -0.1em;
      }
    </style>
  </defs>
  <g>
    <text class="cls-1" transform="translate(14.64 35.25)">AKSH<tspan class="cls-2" x="49.7" y="0">A</tspan><tspan x="61.15" y="0">Y </tspan></text>
    <g>
      <path d="M5.54,40.11a3.17,3.17,0,0,0-.25-.66c-.13-.21-.21-.27-.65-.27H3.85V43c0,.62.06.71.82.76V44H2.36V43.8c.73,0,.8-.13.8-.76V39.18H2.44c-.44,0-.57,0-.7.29a3,3,0,0,0-.26.64H1.24c.05-.49.09-1,.12-1.43h.18c.12.19.21.18.43.18H5.11a.39.39,0,0,0,.4-.18h.2c0,.37,0,.94.07,1.4Z"/>
      <path d="M12.93,44.08h-.3a1.41,1.41,0,0,1-1.23-.68c-.3-.41-.58-.91-.84-1.31s-.26-.3-.66-.3H9.62V43c0,.68.09.71.72.78V44H8.22V43.8c.66-.07.72-.1.72-.78V39.85c0-.67-.09-.69-.72-.77v-.22h2a2.24,2.24,0,0,1,1.27.27,1.21,1.21,0,0,1,.54,1,1.47,1.47,0,0,1-1,1.36c.14.25.49.78.72,1.14a8.88,8.88,0,0,0,.63.82,1.14,1.14,0,0,0,.58.36ZM10,41.5a1.31,1.31,0,0,0,.87-.22,1.13,1.13,0,0,0,.44-1,1.07,1.07,0,0,0-1.17-1.16.75.75,0,0,0-.43.08c-.07.06-.09.14-.09.34V41.5Z"/>
      <path d="M17.6,44V43.8c.52-.07.58-.14.47-.45s-.26-.7-.43-1.2H15.93c-.13.35-.25.66-.36,1-.17.52-.06.58.59.66V44H14.33V43.8c.5-.07.62-.12.9-.84l1.64-4.16.26,0c.5,1.36,1.05,2.86,1.54,4.23.26.69.33.75.89.82V44Zm-.79-4.23c-.25.68-.52,1.41-.76,2h1.48Z"/>
      <path d="M26.45,39.08c-.53.08-.66.15-.95.86-.21.53-1.31,3.18-1.7,4.17h-.26c-.47-1.28-1.15-3.14-1.6-4.31-.22-.59-.36-.67-.84-.72v-.22h2v.22c-.58.07-.62.16-.5.46.19.58.77,2.16,1.27,3.47.42-1,.95-2.31,1.32-3.31.18-.46.08-.54-.57-.62v-.22h1.82Z"/>
      <path d="M32.49,42.76c0,.2-.26,1-.34,1.26H28.3V43.8c.74-.06.79-.13.79-.78V39.89c0-.71-.09-.75-.68-.81v-.22H32c0,.2,0,.79.07,1.21l-.24,0a2.33,2.33,0,0,0-.24-.6c-.12-.26-.31-.32-.78-.32H30c-.24,0-.26,0-.26.25v1.76h.88c.6,0,.64-.12.73-.66h.25v1.63h-.25c-.1-.57-.17-.65-.74-.65h-.87v1.58c0,.56.18.61.57.61h.74c.48,0,.56-.07.74-.27a3.7,3.7,0,0,0,.43-.73Z"/>
      <path d="M38.88,42.7c-.05.25-.29,1.07-.37,1.32H34.82V43.8c.72-.07.79-.11.79-.79V39.86c0-.67-.08-.71-.72-.78v-.22H37v.22c-.64.07-.72.1-.72.78v3.23c0,.49.06.6.51.61h.63c.4,0,.52,0,.71-.24a3,3,0,0,0,.48-.82Z"/>
      <path d="M48.45,40.87c-.56.06-.65.21-.92.6s-.42.61-.7,1a12.34,12.34,0,0,1,1.35,1.57l0,.09a2.11,2.11,0,0,1-1-.32c-.09-.12-.47-.48-.73-.75a2.05,2.05,0,0,1-1.67,1,1.49,1.49,0,0,1-1.59-1.43c0-.74.43-1,1.19-1.52a1.5,1.5,0,0,1-.62-1.13,1.29,1.29,0,0,1,1.32-1.25,1.11,1.11,0,0,1,1.18,1.09.91.91,0,0,1-.34.71,6.31,6.31,0,0,1-.68.44c.26.23.91.77,1.42,1.27a6,6,0,0,0,.49-.91c.15-.36.09-.47-.49-.53v-.23h1.82Zm-3.51,2.71a1.44,1.44,0,0,0,1.28-.7,19,19,0,0,0-1.65-1.51,1.26,1.26,0,0,0-.73,1.12A1.05,1.05,0,0,0,44.94,43.58Zm0-4.5c-.39,0-.64.31-.64.77s.21.66.68,1c.45-.32.64-.57.64-1S45.4,39.08,45,39.08Z"/>
      <path d="M56.83,40.11a2.69,2.69,0,0,0-.25-.66c-.13-.21-.21-.27-.64-.27h-.8V43c0,.62.07.71.82.76V44H53.65V43.8c.74,0,.8-.13.8-.76V39.18h-.72c-.44,0-.56,0-.7.29a3.59,3.59,0,0,0-.26.64h-.24c0-.49.1-1,.12-1.43h.18c.12.19.21.18.43.18h3.15a.39.39,0,0,0,.4-.18H57c0,.37,0,.94.07,1.4Z"/>
      <path d="M62.21,38.75a2.55,2.55,0,0,1,2.57,2.62,2.63,2.63,0,1,1-5.25.12A2.64,2.64,0,0,1,62.21,38.75Zm-.16.3c-.89,0-1.7.74-1.7,2.23s.81,2.56,1.94,2.56c1,0,1.68-.72,1.68-2.25S63.09,39.05,62.05,39.05Z"/>
      <path d="M72.77,39.08c-.5,0-.68.16-.7.53,0,.18,0,.51,0,1.24v.86a2.56,2.56,0,0,1-.56,1.91,1.94,1.94,0,0,1-1.46.51,2.15,2.15,0,0,1-1.3-.36,2.12,2.12,0,0,1-.7-1.84v-2c0-.71-.07-.76-.7-.82v-.22h2.08v.22c-.63,0-.69.11-.69.82v2c0,1.15.54,1.79,1.5,1.79,1.12,0,1.48-.7,1.48-2v-.81c0-.73,0-1,0-1.24s-.21-.49-.79-.53v-.22h1.9Z"/>
      <path d="M79.76,44.08h-.29a1.41,1.41,0,0,1-1.24-.68c-.29-.41-.58-.91-.83-1.31s-.26-.3-.67-.3h-.28V43c0,.68.09.71.73.78V44H75.06V43.8c.66-.07.71-.1.71-.78V39.85c0-.67-.09-.69-.71-.77v-.22h2a2.22,2.22,0,0,1,1.27.27,1.19,1.19,0,0,1,.54,1,1.47,1.47,0,0,1-1,1.36c.14.25.48.78.72,1.14a7.6,7.6,0,0,0,.62.82,1.18,1.18,0,0,0,.58.36ZM76.83,41.5a1.33,1.33,0,0,0,.88-.22,1.13,1.13,0,0,0,.43-1A1.07,1.07,0,0,0,77,39.14a.69.69,0,0,0-.42.08c-.07.06-.1.14-.1.34V41.5Z"/>
      <path d="M81.76,44V43.8c.66-.07.72-.1.72-.78V39.87c0-.68-.06-.71-.72-.79v-.22h2.13v.22c-.66.08-.72.11-.72.79V43c0,.68.06.71.72.78V44Z"/>
      <path d="M89.2,40.07c-.14-.53-.36-1-1.11-1a.79.79,0,0,0-.83.86c0,.55.35.83,1,1.17,1,.49,1.36.86,1.36,1.61a1.57,1.57,0,0,1-1.74,1.47,3.5,3.5,0,0,1-1.22-.26,10.34,10.34,0,0,1-.21-1.19l.24-.07A1.45,1.45,0,0,0,88,43.85a.88.88,0,0,0,.92-.92c0-.61-.33-.85-1-1.23s-1.3-.84-1.3-1.58a1.47,1.47,0,0,1,1.64-1.37,5.1,5.1,0,0,1,1,.15c0,.29.07.61.13,1.12Z"/>
      <path d="M96.61,44V43.8c.65-.07.67-.11.67-1V39.6c-.65,1.45-1.69,3.72-2,4.42H95.1c-.27-.72-1.16-2.9-1.77-4.34-.13,2.78-.14,3.4-.14,3.56,0,.44.21.5.75.56V44H92.05V43.8c.47,0,.66-.14.72-.57s.06-.64.26-3.53c0-.42,0-.55-.74-.62v-.22h1.38l1.75,4,1.88-4h1.39v.22c-.68.08-.77.16-.76.71l0,3.05c0,.85,0,.89.75,1V44Z"/>
    </g>
    <path d="M58.81,3.15l-17.9,6.94a.66.66,0,0,0-.14,1.16l4.54,3.14a.67.67,0,0,0,.72,0l9.15-6.13L48.89,16a.66.66,0,0,0,.16.94l7.66,5.31a.66.66,0,0,0,1-.47l2-18A.66.66,0,0,0,58.81,3.15Z"/>
  </g>
</svg>
